<svg width="280" height="292" viewBox="0 0 280 292" fill="none" xmlns="http://www.w3.org/2000/svg">
<defs>
<filter id="filter0_d_182_591" x="0" y="0" width="281" height="292" filterUnits="userSpaceOnUse" color-interpolation-filters="sRGB">
<feFlood flood-opacity="0" result="BackgroundImageFix"/>
<feColorMatrix in="SourceAlpha" type="matrix" values="0 0 0 0 0 0 0 0 0 0 0 0 0 0 0 0 0 0 127 0" result="hardAlpha"/>
<feOffset dx="-2" dy="6"/>
<feGaussianBlur stdDeviation="1.5"/>
<feColorMatrix type="matrix" values="0 0 0 0 0 0 0 0 0 0 0 0 0 0 0 0 0 0 0.2 0"/>
<feBlend mode="normal" in2="BackgroundImageFix" result="effect1_dropShadow_182_591"/>
<feBlend mode="normal" in="SourceGraphic" in2="effect1_dropShadow_182_591" result="shape"/>
</filter>
<clipPath id="clip0_182_591">
<rect width="275" height="283" fill="white" transform="translate(5)"/>
</clipPath>
</defs>
<g clip-path="url(#clip0_182_591)" filter="url(#filter0_d_182_591)">
<path d="M164.392 24.1355C161.022 26.1876 146.363 34.7647 135.782 42.8323C134.099 44.1165 132.845 45.8769 132.184 47.8887C130.812 52.0767 129.581 56.7274 129.233 58.0754C129.152 58.3872 129.192 58.7192 129.353 58.9975C130.343 60.7411 135.766 66.7431 165.311 77.1913L172.247 62.1929C172.247 62.1929 167.867 34.2852 166.522 24.9637C166.384 24.0282 165.308 23.5789 164.392 24.1355Z" fill="white"/>
<path d="M231.123 191.87L194.753 196.141C188.854 196.836 183.696 200.447 181.03 205.755L164.751 238.457C164.057 239.839 162.514 240.573 161.005 240.241L155.22 238.967C151.162 238.072 147.107 240.479 145.95 244.469L145.045 247.598C144.542 249.331 145.333 251.176 146.936 252.007L173.642 265.845C175.412 266.761 177.589 266.147 178.618 264.44L205.458 220.74L242.552 218.403L231.123 191.87Z" fill="#93B4F6"/>
<path d="M210.539 163.945L213.192 157.292L235.135 158.469L227.163 188.59L210.539 163.945Z" fill="#93B4F6"/>
<path d="M207.769 147.867C207.769 147.867 210.18 141.627 210.143 138.237C210.096 133.727 210.586 124.55 207.712 124.982C205.961 125.244 205.438 129.489 205.223 131.313C205.139 132.034 204.861 132.725 204.378 133.268C203.691 134.042 202.715 134.341 202.202 130.83C201.366 125.11 201.548 114.102 198.224 116.117C196.541 117.14 197.443 127.135 196.49 126.693C195.538 126.25 195.655 111.154 191.604 112.801C190.266 113.344 190.568 120.556 190.843 124.59C190.859 124.815 190.531 124.862 190.48 124.64C189.934 122.203 189.095 118.652 188.425 116.57C187.704 114.326 186.027 115.5 186.027 117.136C186.027 120.657 186.624 128.071 186.624 128.071L207.769 147.867Z" fill="#93B4F6"/>
<path d="M264.094 167.896L270.13 178.29L256.045 223.557C254.724 228.147 249.472 231.011 244.757 230.226L226.627 228.214C224.299 227.825 223.464 229.019 224.279 231.232L232.103 267.127C233.431 270.738 231.372 274.708 227.653 275.704L200.676 282.913C198.064 283.61 195.455 281.786 195.216 279.094L193.664 269.829C193.6 269.122 193.399 266.282 195.005 265.135C197.353 263.458 201.042 261.111 201.042 261.111C202.286 260.444 202.413 258.449 202.048 257.087L191.799 217.239C190.126 211.006 194.006 206.174 200.374 205.115C208.423 203.773 221.838 200.756 221.838 200.756L227.583 163.285C228.337 160.311 231.084 158.276 234.152 158.423L242.966 158.842L264.094 167.896Z" fill="#FFD600"/>
<path d="M260.63 158.044C262.463 150.286 257.657 142.511 249.897 140.679C242.138 138.847 234.361 143.651 232.529 151.41C230.697 159.168 235.502 166.943 243.262 168.775C251.022 170.607 258.798 165.803 260.63 158.044Z" fill="#FFD600"/>
<path d="M115.469 154.53L163.447 111.134C165.925 108.891 169.55 109.069 172.485 110.668C178.417 113.904 188.592 119.688 197.667 129.519C205.287 137.774 217.947 150.882 219.443 161.977C219.614 163.248 219.171 164.522 218.282 165.444C203.654 180.597 173.897 208.504 170.57 211.341C162.695 218.057 142.275 202.895 130.641 189.375C125.782 183.732 109.389 160.263 115.469 154.53Z" fill="white"/>
<path d="M271.774 170.551C267.32 166.169 259.707 166.43 255.012 170.454L238.368 185.61C237.456 186.368 236.104 186.25 235.336 185.348L223.545 171.567C221.646 169.344 220.5 166.581 220.265 163.671L219.839 158.416C219.809 158.061 219.725 157.712 219.584 157.384L217.434 151.851C217.139 151.09 216.113 150.996 215.667 151.68C215.063 152.609 214.735 154.007 214.735 155.395C214.735 158.078 215.365 160.975 214.359 160.975C213.018 160.975 211.425 158.339 210.744 155.865C209.962 153.018 209.573 150.748 208.195 149.487C207.571 148.917 206.461 149.293 206.29 150.242C205.891 152.428 206.35 156.545 206.387 158.883C206.397 159.553 205.797 159.54 205.613 158.725C205.046 156.2 203.5 148.485 203.5 148.485C203.255 147.469 201.853 147.351 201.447 148.317C200.287 151.09 200.72 157.122 200.931 159.365C200.951 159.563 200.683 159.644 200.592 159.469C200.032 158.423 199.043 156.364 198.335 153.742C198.178 153.159 197.379 153.031 197.084 153.558C196.196 155.157 196.648 158.976 196.886 160.546C196.91 160.693 196.709 160.76 196.635 160.633C196.249 159.955 195.954 159.315 195.656 158.551C195.27 157.561 194.442 158.128 194.371 158.755C194.136 160.871 194.016 163.895 194.914 167.772C195.24 169.17 196.417 173.364 201.692 179.672L229.863 210.855C234.893 217.226 241.339 215.546 244.954 212.867C254.009 206.161 270.724 189.64 270.724 189.64C277.082 184.275 275.751 174.464 271.774 170.551Z" fill="#FFD600"/>
<path d="M145.796 180.406C128.961 162.413 120.184 157.226 115.898 156.746C114.949 156.639 114.128 157.38 114.134 158.336C114.185 167.101 126.533 184.607 130.638 189.382C140.008 200.276 155.089 212.236 164.714 212.957C165.452 213.011 166.049 212.37 165.965 211.64C165.382 206.496 161.317 196.993 145.796 180.406Z" fill="#F2BDBA"/>
<path d="M129.498 59.2422C130.829 62.4477 146.128 72.3092 165.305 77.1946L165.875 75.964C158.433 69.4423 145.568 62.8971 136.017 60.4325C132.516 59.5306 130.608 59.1114 129.498 59.2422Z" fill="#F2BDBA"/>
<path d="M166.22 30.5969C164.463 29.1316 162.373 28.1592 160.016 27.7065L160.143 27.0493C162.615 27.5255 164.801 28.5448 166.649 30.0805L166.22 30.5969Z" fill="black"/>
<path d="M191.862 141.818L184.763 135.873C183.649 134.941 182.204 134.509 180.762 134.683C175.01 135.374 159.972 137.396 154.932 140.165C153.064 141.191 149.019 145.671 149.019 145.671C147.554 147.19 147.547 149.594 149.006 151.123L158.235 161.32C158.876 162.027 159.956 162.108 160.693 161.504L168.072 155.462C168.87 154.808 168.95 153.614 168.246 152.857L166.76 151.267C166.167 150.711 166.442 149.715 167.24 149.544L191.232 144.393C192.426 144.129 192.805 142.606 191.862 141.818ZM180.805 152.216C179.652 151.398 178.216 151.328 177.13 152.226L154.841 170.631C153.5 171.738 153.416 174.43 154.553 175.748C155.435 176.771 157.212 178.809 158.074 179.856C159.667 181.79 162.283 181.851 163.568 180.68L169.584 175.198C170.131 174.702 170.976 174.735 171.479 175.275L172.753 176.643C173.655 177.589 175.144 177.636 176.104 176.751L182.747 170.615C184.005 169.451 184.015 167.466 182.764 166.292L182.15 165.716C181.577 165.179 181.583 164.264 182.164 163.737L185.222 160.951C186.362 159.911 186.768 157.581 185.329 156.223C185.333 156.223 182.298 153.279 180.805 152.216Z" fill="#93B4F6"/>
<path d="M132.217 61.0359C136.446 64.3655 147.5 70.4212 161.153 74.8506L161.602 73.9084C155.961 69.1169 143.113 63.1651 132.492 60.476C132.16 60.3921 131.946 60.8247 132.217 61.0359Z" fill="black"/>
<path d="M117.005 160.23C118.924 157.802 135.873 173.612 141.618 179.47C151.451 189.492 165.731 208.89 162.29 209.795C160.147 210.359 146.89 202.935 132.895 187.118C122.247 175.081 115.822 161.729 117.005 160.23Z" fill="black"/>
<path d="M230.248 20.3396L229.752 17.3285C229.339 14.8238 226.861 13.5965 224.466 14.4482C221.327 15.5614 217.256 16.8826 215.049 18.5993C214.174 19.28 213.698 20.353 213.788 21.4562C214.596 31.2572 215.522 38.8955 215.961 42.2687C216.116 43.4658 215.72 44.6695 214.882 45.538L205.089 55.7213L215.019 60.7979L233.608 43.4792L230.248 20.3396Z" fill="#93B4F6"/>
<path d="M165.308 77.1944L172.411 61.834C173.642 59.175 176.238 57.4146 179.162 57.2503L193.881 56.4355C197.503 56.2343 201.028 55.1881 204.174 53.3808C206.749 51.9021 209.918 51.9155 212.481 53.4211C214.164 54.4102 216.29 54.2258 217.779 52.9617L223.095 48.4484C223.705 47.9287 224.034 47.1542 223.984 46.3561C223.702 42.0843 222.807 28.0953 222.693 21.2751C222.676 20.3262 223.209 19.451 224.061 19.0352C227.599 17.3084 233.139 16.4668 237.385 17.191C238.435 17.3687 239.256 18.2305 239.323 19.2934C239.608 23.9475 236.429 28.9335 236.429 28.9335L239.229 49.9808C239.847 54.6215 237.865 59.2253 234.072 61.9681L216.388 74.75C215.046 75.7191 213.651 76.6177 212.209 77.4325C208.785 79.3739 205.123 80.8627 201.316 81.8586L187.764 85.4028L165.308 77.1944Z" fill="#FFD600"/>
<path d="M171.401 63.3933L179.635 62.146L186.033 68.9427L173.632 80.7422L167.072 73.3319L171.401 63.3933Z" fill="#93B4F6"/>
<path d="M191.543 59.5456C193.155 53.3822 189.464 47.0798 183.299 45.4688C177.135 43.8577 170.831 47.548 169.22 53.7114C167.609 59.8747 171.299 66.1771 177.464 67.7882C183.628 69.3993 189.932 65.7089 191.543 59.5456Z" fill="#FFD600"/>
<path d="M150.844 52.3985L153.027 49.0287C153.396 48.4587 153.171 47.6942 152.551 47.4159L151.639 47.0068C151.089 46.7586 151.018 46.0076 151.515 45.6622L161.264 38.9057C161.757 38.5637 161.646 37.8059 161.076 37.6148L156.612 36.1428C156.082 35.9684 155.505 36.0456 155.039 36.354L145.441 42.7081C144.851 43.0971 144.375 43.6336 144.053 44.2606L142.705 46.8894C142.024 48.2172 142.607 49.8435 143.976 50.4336L149.472 52.811C149.972 53.0289 150.552 52.8512 150.844 52.3985ZM162.37 50.9098L161.874 50.6013C161.431 50.3263 161.264 49.7664 161.478 49.2936L162.136 47.8518C162.521 47.0068 162.193 46.0076 161.381 45.5549L159.178 44.3277C158.312 43.8482 157.223 44.16 156.75 45.0285L150.093 57.1599C149.65 57.968 149.895 58.9806 150.659 59.497L153.017 61.083C153.886 61.6664 155.069 61.3781 155.576 60.4627L157.484 56.9855C157.769 56.4692 158.426 56.2948 158.93 56.5999L159.191 56.7609C159.765 57.113 160.516 56.8984 160.818 56.2982L162.786 52.4086C163.061 51.8754 162.877 51.2249 162.37 50.9098Z" fill="#93B4F6"/>
<path d="M200.102 62.4105C196.876 59.5302 191.956 59.7012 188.934 62.7928L179.953 71.9869C179.252 72.7045 178.219 72.9895 177.25 72.7347L163.899 69.2307C162.977 68.9893 162.142 68.493 161.488 67.7989L157.655 63.735C157.336 63.3963 156.763 63.4567 156.558 63.8725C156.347 64.2983 156.216 64.9958 156.434 66.1258C156.917 68.6406 155.458 68.6339 153.976 67.4469C153.211 66.8366 152.027 65.8843 151.061 65.1031C150.327 64.5096 149.244 65.0394 149.24 65.9816C149.234 67.1283 149.398 68.4427 150.059 69.1771C148.711 73.2209 150.974 78.0225 154.559 79.9606C158.698 82.1971 181.003 89.0877 181.003 89.0877C183.169 89.7281 185.514 89.1279 187.107 87.5285L200.444 74.1363C203.717 70.857 203.56 65.4987 200.102 62.4105Z" fill="#FFD600"/>
<path d="M173.407 48.9851C171.979 50.0212 170.865 51.5133 170.204 53.2904C168.715 57.2974 170.121 61.6027 173.26 64.1745C174.95 65.5594 177.529 65.888 180.091 64.3053C181.758 63.2759 183.019 61.6195 183.75 59.6546C185.031 56.211 184.166 52.6399 181.879 50.0815C180 47.9859 175.788 47.2549 173.407 48.9851Z" fill="black"/>
<path d="M89.8912 178.866C88.6101 173.984 87.1848 167.694 86.4336 165.558C86.4034 165.474 86.2994 165.243 86.2223 165.193C85.5482 164.743 81.5909 162.849 77.0098 163.613C75.5912 163.851 70.7217 163.399 68.7732 164.877C68.1695 165.333 67.9415 166.105 67.8878 166.859C67.6128 170.926 66.9354 183.494 67.0494 187.735C67.0696 188.496 67.5927 189.18 68.3406 189.331C76.5939 191.011 86.1921 190.237 90.468 187.008C90.9409 186.649 91.2058 186.082 91.1522 185.489C91.0449 184.352 90.7497 182.136 89.8912 178.866Z" fill="white"/>
<path d="M42.7319 146.298L29.0959 142.036C28.3882 141.815 27.9456 141.111 28.0495 140.376L30.1556 125.646C30.3032 124.607 29.5822 123.645 28.5425 123.494L20.0242 122.193C19.6251 122.136 18.7666 122.434 18.7666 123.581C18.7666 124.141 18.9209 124.453 19.2059 124.795L20.7453 126.649C21.0337 126.994 21.1578 127.45 21.084 127.893L19.263 139.159L25.4974 152.434L40.6459 154.054L42.7319 146.298Z" fill="#93B4F6"/>
<path d="M15.7919 127.293L27.6437 145.932C27.9623 146.435 28.4721 146.791 29.0523 146.922L31.7084 147.512C32.5904 147.706 33.5126 147.552 34.2806 147.083L35.3068 146.456C37.3425 145.208 39.8209 144.916 42.0913 145.657L58.3498 150.959L53.5977 165.776L37.5672 161.866C36.1754 161.528 34.8072 161.112 33.4623 160.619C31.4636 159.888 28.5392 158.771 26.7584 157.896C22.1672 155.64 20.6614 153.883 19.9135 152.481C17.5358 148.025 11.6602 137.925 10.9191 136.732C9.95655 135.182 7.84038 135.048 6.71691 134.757C6.0227 134.576 5.51295 134.27 5.23124 133.61L5.08703 133.275C4.916 132.876 5.05015 132.413 5.40564 132.165L13.1928 126.726C14.0581 126.122 15.2553 126.381 15.7919 127.293Z" fill="#FFD600"/>
<path d="M65.6004 161.102L79.9473 161.092C81.1178 161.085 82.3251 161.434 82.9421 162.141C83.311 162.564 83.9684 163.476 84.3172 163.915C84.5586 164.224 84.4714 164.623 84.1226 164.539L82.3821 163.915L82.6906 164.981C82.9019 165.558 82.3754 165.82 81.9294 165.595L80.1955 164.777C80.2391 165.26 79.7293 165.602 79.2967 165.377C78.4985 164.961 78.1934 164.693 77.09 163.942C76.815 163.758 76.4897 163.664 76.1577 163.68C73.1998 163.828 71.1138 164.197 69.3095 164.935C67.9714 165.481 67.9379 166.873 67.9144 167.308C67.8742 168.043 66.8815 170.242 66.8815 170.242L57.5415 168.321L55.8882 162.105L65.6004 161.102Z" fill="#93B4F6"/>
<path d="M60.1474 162.758C64.2147 162.758 67.512 159.323 67.512 155.086C67.512 150.849 64.2147 147.415 60.1474 147.415C56.08 147.415 52.7827 150.849 52.7827 155.086C52.7827 159.323 56.08 162.758 60.1474 162.758Z" fill="#FFD600"/>
<path d="M63.3503 173.199C63.3503 173.199 58.8195 181.2 58.1387 185.928C57.9207 187.45 59.0308 188.848 60.56 189.029C61.9149 189.187 64.0109 189.264 67.1667 189.013C66.7106 187.588 67.7503 174.92 68.1963 169.799C68.2567 169.112 67.4082 168.743 66.942 169.253L63.3503 173.199Z" fill="white"/>
<path d="M78.8174 169.387C79.7866 171.406 83.4455 179.108 84.2269 182.2C84.3241 182.582 84.0223 182.944 83.63 182.92C80.0516 182.682 76.5973 183.205 75.1251 183.474C74.7494 183.541 74.4141 183.236 74.4443 182.857L75.4437 170.521C75.4604 170.303 75.6013 170.112 75.8025 170.031L78.0729 169.106C78.358 168.988 78.6833 169.112 78.8174 169.387Z" fill="white"/>
<path d="M83.3848 179.708C81.7281 175.376 78.5791 168.898 78.5791 168.898L77.8379 169.2L81.3525 182.86C82.3284 182.85 83.3479 182.91 84.3675 183.008C84.3205 182.357 83.9348 181.153 83.3848 179.708Z" fill="#93B4F6"/>
<path d="M84.371 183.007C84.3676 182.95 81.6646 180.757 81.6646 180.757C81.2017 180.405 80.578 180.358 80.0716 180.637L74.7896 183.53C76.0639 183.286 80.2158 182.605 84.371 183.007Z" fill="#93B4F6"/>
<path d="M57.6488 157.34C57.5248 158.677 57.8232 159.935 58.4168 160.991C58.8159 161.699 59.5671 162.155 60.3821 162.155C60.3854 162.155 60.3921 162.155 60.3955 162.155C64.0644 162.155 67.0391 159.056 67.0391 155.234C67.0391 155.227 67.0391 155.217 67.0391 155.21C67.0324 153.598 65.8787 152.226 64.3528 151.971C63.8866 151.894 63.4004 151.874 62.9007 151.918C60.144 152.169 57.9138 154.473 57.6488 157.34Z" fill="black"/>
<path d="M81.4094 170.367L79.8265 170.551C79.699 170.564 79.6353 170.404 79.7359 170.326L81.064 169.324C81.5838 168.932 81.2719 168.107 80.6247 168.157C79.1859 168.268 77.3314 168.422 76.0067 168.563C75.7887 168.586 75.6914 168.291 75.8826 168.18C76.4762 167.842 76.7881 167.677 77.4052 167.332C78.2872 166.836 77.4186 166.138 76.4091 166.175C74.521 166.249 72.6396 167.386 71.2076 167.386C68.6186 167.386 61.4518 167.037 61.4518 167.037C60.885 167.017 60.3585 166.729 60.0399 166.259L54.2179 157.645C52.5881 155.492 49.5128 155.093 47.3899 156.76C45.3744 158.339 44.9417 161.219 46.4073 163.322L54.9323 174.243C55.7204 175.252 56.9176 175.862 58.1987 175.906L76.7612 175.624C78.9747 175.628 80.5308 173.622 80.7286 172.58C81.2987 172.194 81.7045 171.772 81.9963 171.389C82.335 170.94 81.9728 170.3 81.4094 170.367Z" fill="#FFD600"/>
<path d="M58.568 91.0192C58.568 91.0192 60.1442 96.9407 64.1183 104.968C69.7524 116.345 72.5024 120.902 75.4 125.787C78.928 131.736 89.7 137.768 110.483 124.895C132.016 111.56 128.733 102.775 127.305 99.7171C126.459 97.9064 119.601 85.0909 113.91 75.3636C111.69 71.568 109.594 68.3255 108.199 66.2332C107.038 64.4929 105.174 63.363 103.095 63.1282C97.4268 62.4878 85.4207 62.5515 73.0759 71.4942C56.0561 83.8268 58.568 91.0192 58.568 91.0192Z" fill="white"/>
<path d="M128.17 106.229C128.737 103.369 127.503 100.445 125.098 98.7884C119.001 94.5836 107.059 94.4026 91.9169 103.966C75.2794 114.474 74.8937 123.366 77.3687 128.292C82.2181 133.077 92.6748 135.924 110.479 124.895C123.24 116.996 127.285 110.692 128.17 106.229Z" fill="#F2BDBA"/>
<path d="M80.4839 127.967C78.4147 125.006 78.3744 115.731 93.9052 105.743C109.56 95.6732 123.293 98.5368 125.312 103.965C127.331 109.394 116.083 119.336 103.554 125.7C92.2183 131.461 82.7778 131.249 80.4839 127.967Z" fill="black"/>
<path d="M67.0359 186.86C65.6709 186.857 64.2322 186.93 62.7935 187.044C59.5539 187.303 59.1179 188.322 59.4231 188.634C59.7081 188.926 60.1407 189.083 60.56 189.13C61.9148 189.288 64.7118 189.378 67.6898 189.029C67.0359 188.309 67.0392 187.96 67.0359 186.86Z" fill="black"/>
<path d="M89.8172 166.896C88.848 165.699 88.2947 165.847 86.5239 165.82C87.2751 168.415 88.5831 173.884 89.891 178.87C91.1989 183.853 91.2056 186.388 91.2056 186.388C92.8489 186.17 94.1736 185.925 97.3898 185.385C100.016 184.942 100.25 182.77 98.8922 180.758L89.8172 166.896Z" fill="white"/>
<path d="M89.9211 187.393C90.1089 186.917 89.8003 186.441 89.0122 186.052C87.4461 185.274 84.3808 184.664 78.408 184.999C72.9013 185.308 70.1077 186.669 68.7025 187.87C67.9513 188.513 68.0016 189.01 68.6656 189.412C76.9424 191.42 85.5043 190.301 89.9211 187.393Z" fill="#F2BDBA"/>
<path d="M97.732 185.445C98.3961 185.274 98.5 184.563 98.1546 184.315C98.007 184.211 97.8327 184.104 97.6247 183.997C95.9915 183.158 93.3823 183.168 90.8872 183.467C91.2025 185.405 91.2595 185.871 90.904 186.528C92.9363 186.387 97.5342 185.495 97.732 185.445Z" fill="black"/>
<path d="M78.4015 89.0576C77.4255 86.6031 77.3954 83.867 78.5457 82.0731C78.814 81.654 79.307 80.97 79.0588 80.5408L76.899 77.409C76.4429 76.6176 75.2524 77.1139 74.7057 77.8482C72.0127 81.4796 71.0067 86.2108 73.0188 91.2606C75.9734 98.6876 81.46 100.86 87.1143 99.479C88.0298 99.2543 88.4759 98.2182 88.003 97.4034L86.353 94.6707C85.9908 94.0436 85.2966 93.6983 84.5722 93.7553C82.1307 93.9531 79.7161 92.357 78.4015 89.0576ZM94.5091 80.296C90.2332 73.5261 83.4387 72.4934 78.9884 74.1833C78.2103 74.4784 77.8582 75.3804 78.274 76.1013L80.7021 79.3906C80.9905 79.8869 81.5606 80.1283 82.1207 80.021C84.4951 79.5617 87.4127 80.4804 89.3344 83.3842C90.8603 85.6911 90.8569 89.3024 88.4356 91.6227C87.9057 92.1324 87.9594 93.0075 88.3283 93.6446L89.8777 96.317C90.4914 97.3732 91.863 97.4738 92.7987 96.6926C97.1853 93.031 97.5073 85.044 94.5091 80.296Z" fill="#93B4F6"/>
<path d="M190.299 79.8232C190.068 79.8232 189.833 79.7628 189.619 79.6388C187.975 78.6831 185.011 76.8155 183.619 75.0819C183.227 74.5924 183.237 73.8782 183.649 73.3819L188.006 68.131C188.465 67.5744 189.28 67.4771 189.86 67.9063C191.228 68.9223 193.72 70.8 195.045 71.9736C195.578 72.4464 195.662 73.231 195.239 73.801C193.717 75.8598 192.198 78.0863 191.43 79.2263C191.165 79.6119 190.735 79.8232 190.299 79.8232ZM189.049 68.3087C188.851 68.3087 188.653 68.3925 188.519 68.5568L184.162 73.8077C183.954 74.0592 183.944 74.4147 184.142 74.6594C185.517 76.3729 188.666 78.3076 189.957 79.0587C190.269 79.2397 190.668 79.1492 190.87 78.8508C191.644 77.704 193.167 75.4709 194.696 73.3987C194.907 73.1103 194.867 72.7113 194.595 72.4732C193.291 71.3164 190.816 69.4521 189.454 68.4428C189.334 68.3523 189.189 68.3087 189.049 68.3087Z" fill="black"/>
<path d="M253.687 199.193C253.603 199.193 253.519 199.189 253.432 199.179C252.734 199.112 252.107 198.773 251.668 198.23L244.441 189.261C243.582 188.195 243.706 186.642 244.719 185.723L252.708 178.504C253.234 178.028 253.912 177.793 254.616 177.844C255.323 177.894 255.961 178.219 256.417 178.759L264.063 187.869C264.979 188.959 264.834 190.589 263.748 191.504L255.344 198.579C254.874 198.981 254.294 199.193 253.687 199.193ZM245.172 186.223C244.421 186.904 244.33 188.05 244.964 188.842L252.191 197.811C252.516 198.214 252.979 198.465 253.496 198.515C254.012 198.566 254.515 198.408 254.911 198.076L263.315 191.001C264.12 190.324 264.224 189.117 263.55 188.309L255.904 179.198C255.568 178.796 255.092 178.554 254.569 178.521C254.046 178.487 253.543 178.658 253.157 179.01L245.172 186.223Z" fill="black"/>
<path d="M214.208 183.464L213.685 183.045L217.451 178.32C217.672 178.042 217.595 177.75 217.447 177.569C217.3 177.388 217.028 177.254 216.71 177.415L212.454 179.605C211.897 179.89 211.267 179.752 210.878 179.266C210.489 178.78 210.502 178.133 210.904 177.656L214.691 173.187C214.925 172.908 214.848 172.61 214.701 172.426C214.55 172.241 214.278 172.1 213.956 172.271L202.986 177.854L202.681 177.257L213.648 171.674C214.198 171.383 214.835 171.517 215.224 172.003C215.616 172.493 215.606 173.14 215.204 173.619L211.417 178.089C211.183 178.364 211.256 178.662 211.404 178.847C211.552 179.031 211.823 179.172 212.145 179.008L216.398 176.818C216.944 176.536 217.571 176.667 217.96 177.14C218.349 177.613 218.353 178.257 217.971 178.736L214.208 183.464Z" fill="black"/>
<path d="M232.465 190.416L227.57 203.614L228.199 203.847L233.094 190.649L232.465 190.416Z" fill="black"/>
<path d="M240.145 193.283L239.513 193.506L245.159 209.545L245.792 209.323L240.145 193.283Z" fill="black"/>
<path d="M239.912 204.387L239.249 204.485L240.413 212.37L241.077 212.272L239.912 204.387Z" fill="black"/>
<path d="M232.365 201.347L231.159 207.665L231.818 207.79L233.024 201.473L232.365 201.347Z" fill="black"/>
<path d="M178.685 74.704L178.096 75.0239L184.181 86.2344L184.77 85.9145L178.685 74.704Z" fill="black"/>
<path d="M178.724 80.6614L178.079 80.8467L179.958 87.3822L180.603 87.1969L178.724 80.6614Z" fill="black"/>
<path d="M175.69 75.7667L175.109 85.5879L175.778 85.6275L176.36 75.8063L175.69 75.7667Z" fill="black"/>
<path d="M157.964 79.575L157.316 79.4006L159.04 72.956C159.148 72.5502 159.513 72.2988 159.932 72.3424C160.348 72.386 160.653 72.7112 160.677 73.127L160.868 76.9864C160.875 77.0937 160.948 77.1272 160.995 77.1373C161.042 77.1473 161.123 77.1507 161.173 77.0534L163.661 72.1445L164.258 72.4463L161.773 77.3552C161.599 77.6972 161.233 77.8716 160.858 77.7911C160.482 77.7106 160.221 77.4022 160.201 77.0199L160.009 73.1605C160.003 73.0398 159.915 73.013 159.865 73.0096C159.815 73.0029 159.724 73.013 159.694 73.127L157.964 79.575Z" fill="black"/>
<path d="M226.912 45.829L226.806 46.4912L236.622 48.0555L236.728 47.3933L226.912 45.829Z" fill="black"/>
<path d="M227.586 48.8328L227.342 49.4575L236.557 53.0561L236.801 52.4314L227.586 48.8328Z" fill="black"/>
<path d="M227.715 51.4224L227.207 51.8599L233.724 59.4314L234.232 58.994L227.715 51.4224Z" fill="black"/>
<path d="M217.729 231.198L217.692 231.195L198.516 229.002L198.593 228.334L217.749 230.524C218.212 230.517 218.463 230.199 218.547 229.904C218.631 229.605 218.574 229.196 218.165 228.955L196.098 218.54C195.41 218.131 195.152 217.363 195.441 216.652C195.729 215.941 196.453 215.569 197.198 215.75L214.701 219.643C215.204 219.764 215.536 219.469 215.67 219.177C215.801 218.892 215.814 218.46 215.425 218.158L200.763 210.912L201.061 210.312L215.801 217.601C216.491 218.107 216.538 218.899 216.28 219.459C216.022 220.019 215.388 220.495 214.553 220.297L197.05 216.404C196.524 216.277 196.192 216.595 196.064 216.907C195.937 217.216 195.954 217.675 196.413 217.95L218.48 228.365C219.111 228.74 219.379 229.407 219.195 230.085C219.003 230.762 218.43 231.198 217.729 231.198Z" fill="black"/>
<path d="M52.5748 167.929C52.5044 167.929 52.4339 167.925 52.3635 167.915C51.9443 167.855 51.5721 167.617 51.3407 167.261L49.5833 164.569C49.144 163.898 49.3285 162.986 49.9958 162.54L52.34 160.968C53.0108 160.518 53.923 160.696 54.3757 161.36L56.0022 163.741C56.4282 164.364 56.3141 165.203 55.7407 165.692L53.5306 167.577C53.2623 167.808 52.9236 167.929 52.5748 167.929ZM53.1617 161.393C53.0074 161.393 52.8532 161.437 52.7157 161.528L50.3714 163.1C50.0092 163.345 49.9086 163.838 50.1468 164.207L51.9041 166.899C52.0315 167.094 52.2327 167.221 52.4608 167.255C52.6922 167.288 52.9202 167.221 53.0946 167.07L55.3047 165.186C55.6166 164.918 55.6803 164.462 55.4455 164.123L53.819 161.742C53.6715 161.514 53.4166 161.393 53.1617 161.393Z" fill="black"/>
<path d="M58.9324 168.184L55.2607 172.031L55.746 172.494L59.4177 168.647L58.9324 168.184Z" fill="black"/>
<path d="M57.8136 171.71L56.835 173.688L57.4361 173.985L58.4148 172.008L57.8136 171.71Z" fill="black"/>
<path d="M60.4972 168.112L59.1284 174.642L59.7849 174.78L61.1537 168.249L60.4972 168.112Z" fill="black"/>
<path d="M68.1322 173.384C68.1154 173.384 68.102 173.384 68.0853 173.384C67.6392 173.364 67.2603 173.079 67.1194 172.657L66.5225 170.853L67.1596 170.641L67.7566 172.445C67.8371 172.683 68.0484 172.714 68.1121 172.714C68.1758 172.714 68.3904 172.707 68.4911 172.476L69.0712 171.118C69.2121 170.789 69.5039 170.554 69.856 170.49C70.2081 170.427 70.5636 170.537 70.8118 170.792L72.5657 172.59C72.72 172.747 72.9078 172.73 73.0352 172.66C73.1627 172.59 73.2801 172.439 73.2298 172.224L72.4148 168.737L73.0688 168.586L73.8837 172.073C73.9944 172.543 73.7831 173.015 73.3606 173.247C72.9346 173.478 72.4249 173.401 72.0862 173.056L70.3322 171.258C70.2383 171.161 70.1075 171.121 69.9801 171.148C69.8493 171.171 69.742 171.258 69.6917 171.379L69.1115 172.737C68.9404 173.136 68.5615 173.384 68.1322 173.384Z" fill="black"/>
<path d="M24.8999 146.502L20.0972 148.149L20.3149 148.784L25.1176 147.136L24.8999 146.502Z" fill="black"/>
<path d="M23.5714 148.639L20.9893 150.789L21.4185 151.304L24.0006 149.154L23.5714 148.639Z" fill="black"/>
<path d="M25.4853 148.769L23.478 153.932L24.1032 154.175L26.1105 149.012L25.4853 148.769Z" fill="black"/>
<path d="M7.49483 133.724C7.42105 133.724 7.34392 133.717 7.27014 133.701L6.68994 133.573L6.83415 132.919L7.41434 133.047C7.52166 133.07 7.63232 133.047 7.71952 132.986C7.81007 132.923 7.86709 132.829 7.88051 132.718L7.94087 132.249C7.98111 131.95 8.14543 131.682 8.39361 131.511C8.64178 131.34 8.95366 131.286 9.24543 131.357L10.3991 131.642C10.5232 131.672 10.6506 131.642 10.7445 131.558C10.8418 131.474 10.8887 131.353 10.8787 131.226L10.8217 130.582C10.7915 130.24 10.9223 129.912 11.1805 129.687C11.4387 129.462 11.7808 129.375 12.1162 129.456L12.8707 129.633C12.9948 129.663 13.1189 129.63 13.2162 129.546C13.3101 129.462 13.3604 129.342 13.347 129.214C13.3101 128.845 13.4643 128.493 13.7595 128.269C14.0546 128.044 14.4369 127.99 14.7823 128.124L15.6476 128.456L15.4061 129.083L14.5409 128.751C14.4134 128.701 14.2759 128.721 14.1653 128.805C14.0546 128.889 14.0009 129.016 14.0143 129.154C14.0479 129.499 13.9171 129.824 13.6589 130.052C13.4006 130.28 13.0552 130.368 12.7198 130.287L11.9653 130.109C11.8412 130.083 11.7171 130.113 11.6198 130.193C11.5259 130.277 11.4756 130.394 11.489 130.522L11.5461 131.166C11.5762 131.508 11.4421 131.843 11.1805 132.064C10.9189 132.286 10.5668 132.373 10.2348 132.289L9.0811 132.004C8.97378 131.977 8.86312 131.997 8.76921 132.061C8.67531 132.125 8.6183 132.219 8.60153 132.333L8.54117 132.802C8.50092 133.094 8.3433 133.359 8.09848 133.53C7.92409 133.657 7.71282 133.724 7.49483 133.724Z" fill="black"/>
<path d="M226.432 24.3799C226.422 24.3799 226.415 24.3799 226.405 24.3799C226.063 24.3698 225.768 24.1686 225.634 23.8568L225.09 22.596C225.044 22.4887 224.95 22.4753 224.909 22.4753C224.909 22.4753 224.909 22.4753 224.906 22.4753C224.866 22.4753 224.769 22.4887 224.725 22.5994L224.118 24.115L223.494 23.8668L224.101 22.3512C224.232 22.0226 224.544 21.8114 224.896 21.8047C224.899 21.8047 224.903 21.8047 224.906 21.8047C225.255 21.8047 225.567 22.0092 225.704 22.3278L226.247 23.5885C226.291 23.6925 226.385 23.7059 226.425 23.7092C226.462 23.7092 226.556 23.7025 226.606 23.5986L226.999 22.814C227.129 22.5524 227.381 22.3747 227.669 22.3412C227.961 22.3043 228.246 22.4149 228.434 22.6396L229.081 23.394C229.152 23.4745 229.239 23.4645 229.272 23.4578C229.306 23.451 229.39 23.4242 229.42 23.3203L229.812 22.0092C229.9 21.7209 230.124 21.4996 230.419 21.4191C230.711 21.3386 231.02 21.4157 231.238 21.6236L232.505 22.8106C232.579 22.881 232.666 22.8676 232.7 22.8542C232.733 22.8441 232.811 22.8106 232.834 22.71L233.082 21.637C233.153 21.3386 233.364 21.1039 233.656 21.0066C233.948 20.9094 234.259 20.9731 234.491 21.171L235.4 21.9455C235.48 22.0126 235.564 21.9925 235.597 21.979C235.631 21.9656 235.708 21.9287 235.725 21.8248L235.896 20.7619C235.946 20.4467 236.168 20.1851 236.469 20.0812C236.775 19.9773 237.107 20.0477 237.341 20.2656C237.429 20.3461 237.519 20.3159 237.556 20.3025C237.593 20.2857 237.673 20.2388 237.673 20.1214V19.3569H238.344V20.1214C238.344 20.4735 238.146 20.7753 237.824 20.9161C237.502 21.0569 237.144 20.9966 236.885 20.7585C236.808 20.6848 236.721 20.7049 236.687 20.7183C236.654 20.7283 236.573 20.7686 236.557 20.8725L236.386 21.9355C236.335 22.2473 236.127 22.5021 235.829 22.6128C235.53 22.7234 235.208 22.6664 234.967 22.4585L234.058 21.684C233.981 21.6203 233.901 21.637 233.867 21.6471C233.837 21.6571 233.76 21.694 233.736 21.7913L233.488 22.8643C233.418 23.1694 233.196 23.4075 232.894 23.5013C232.593 23.5919 232.277 23.5181 232.046 23.3035L230.778 22.1165C230.704 22.0495 230.624 22.0629 230.59 22.0696C230.557 22.0796 230.48 22.1098 230.453 22.2037L230.061 23.5148C229.97 23.8199 229.719 24.0479 229.41 24.115C229.098 24.182 228.776 24.0714 228.572 23.8299L227.924 23.0755C227.861 23.0017 227.783 23.0051 227.75 23.0084C227.72 23.0118 227.639 23.0319 227.596 23.1157L227.203 23.9004C227.059 24.1954 226.764 24.3799 226.432 24.3799Z" fill="black"/>
<path d="M225.45 19.2825L225.112 19.8618L228.313 21.7285L228.651 21.1492L225.45 19.2825Z" fill="black"/>
<path d="M228.464 18.049L228.138 18.6353L232.298 20.9457L232.624 20.3595L228.464 18.049Z" fill="black"/>
<path d="M232.267 17.6368L231.98 18.2427L235.404 19.8666L235.691 19.2607L232.267 17.6368Z" fill="black"/>
<path d="M197.647 279.1L197.03 278.839L198.057 276.425C198.305 275.841 198.794 275.409 199.405 275.234C200.015 275.06 200.659 275.171 201.179 275.536L202.245 276.287C202.617 276.549 203.077 276.619 203.51 276.472C203.942 276.327 204.267 275.995 204.408 275.563L204.593 274.989C204.801 274.336 205.321 273.829 205.974 273.632C206.628 273.434 207.343 273.571 207.876 273.997L208.959 274.859C209.332 275.154 209.804 275.244 210.257 275.104C210.71 274.966 211.052 274.624 211.193 274.171L211.471 273.276C211.676 272.619 212.169 272.119 212.826 271.911C213.483 271.7 214.174 271.821 214.724 272.237L215.968 273.179C216.344 273.464 216.817 273.544 217.266 273.397C217.716 273.249 218.048 272.904 218.182 272.451L218.648 270.865C218.853 270.171 219.389 269.641 220.087 269.444C220.781 269.249 221.519 269.423 222.055 269.91L223.055 270.818C223.427 271.157 223.94 271.274 224.423 271.123C224.906 270.976 225.265 270.594 225.385 270.104C225.563 269.373 226.1 268.806 226.824 268.595C227.545 268.384 228.303 268.565 228.85 269.085L230.406 270.563L229.943 271.05L228.387 269.571C228.015 269.219 227.502 269.095 227.012 269.239C226.522 269.383 226.157 269.765 226.036 270.265C225.862 270.989 225.332 271.549 224.621 271.767C223.91 271.985 223.155 271.817 222.605 271.315L221.606 270.406C221.244 270.074 220.744 269.957 220.271 270.091C219.798 270.225 219.433 270.584 219.295 271.053L218.829 272.639C218.635 273.296 218.131 273.816 217.481 274.031C216.827 274.245 216.113 274.124 215.566 273.712L214.322 272.77C213.949 272.488 213.48 272.408 213.034 272.548C212.588 272.689 212.253 273.028 212.115 273.474L211.837 274.369C211.632 275.026 211.116 275.539 210.458 275.744C209.801 275.945 209.087 275.811 208.547 275.382L207.463 274.52C207.095 274.225 206.625 274.134 206.172 274.272C205.72 274.409 205.378 274.745 205.233 275.194L205.049 275.767C204.844 276.408 204.361 276.894 203.724 277.109C203.087 277.323 202.41 277.223 201.86 276.834L200.793 276.083C200.441 275.834 200.005 275.761 199.589 275.878C199.177 275.995 198.841 276.29 198.674 276.686L197.647 279.1Z" fill="black"/>
<path d="M175.731 262.486H175.06V259.27C175.06 258.828 174.832 258.432 174.453 258.207C174.074 257.983 173.615 257.976 173.229 258.187L171.811 258.968C171.214 259.297 170.506 259.287 169.923 258.938C169.336 258.593 168.987 257.979 168.987 257.299V256.192C168.987 255.773 168.786 255.397 168.437 255.163C168.088 254.928 167.662 254.888 167.277 255.052L165.456 255.813C164.865 256.061 164.195 255.998 163.665 255.642C163.131 255.287 162.813 254.693 162.813 254.056V253.691C162.813 253.272 162.615 252.899 162.266 252.665C161.917 252.43 161.495 252.386 161.109 252.547L159.365 253.261C158.775 253.503 158.108 253.436 157.581 253.08C157.051 252.725 156.736 252.135 156.736 251.498C156.736 251.075 156.535 250.7 156.183 250.468C155.831 250.234 155.405 250.197 155.019 250.361L153.664 250.934C153.141 251.156 152.554 251.132 152.051 250.874C151.548 250.616 151.186 250.153 151.062 249.6L150.887 248.835C150.803 248.473 150.569 248.171 150.24 248.007C149.908 247.84 149.526 247.829 149.187 247.98L146.779 249.037L146.511 248.423L148.919 247.367C149.442 247.139 150.035 247.152 150.545 247.41C151.055 247.669 151.42 248.135 151.548 248.691L151.722 249.456C151.803 249.814 152.038 250.113 152.363 250.281C152.688 250.448 153.07 250.462 153.409 250.321L154.764 249.747C155.354 249.496 156.025 249.56 156.562 249.915C157.095 250.271 157.413 250.864 157.413 251.504C157.413 251.924 157.611 252.296 157.96 252.53C158.309 252.765 158.728 252.805 159.117 252.648L160.861 251.934C161.451 251.692 162.119 251.759 162.645 252.115C163.175 252.47 163.49 253.06 163.49 253.697V254.063C163.49 254.482 163.692 254.858 164.04 255.092C164.389 255.327 164.815 255.367 165.201 255.203L167.022 254.442C167.612 254.197 168.283 254.261 168.813 254.613C169.346 254.968 169.661 255.562 169.661 256.199V257.305C169.661 257.748 169.889 258.144 170.268 258.368C170.647 258.593 171.106 258.6 171.492 258.388L172.911 257.607C173.508 257.278 174.215 257.289 174.799 257.637C175.386 257.983 175.734 258.596 175.734 259.277V262.486H175.731Z" fill="black"/>
<path d="M251.145 159.687C248.046 164.717 239.796 167.352 235.779 161.947C231.315 155.938 234.498 143.16 243.787 142.623C245.907 142.499 248.019 143.193 249.69 144.575C253.929 148.085 254.619 154.047 251.145 159.687Z" fill="black"/>
<path d="M240.551 153.028C239.411 156.552 238.103 160.448 236.463 158.45C235.443 157.206 234.823 154.215 235.55 151.371C236.124 149.131 237.727 146.982 239.32 145.855C240.145 145.272 240.98 145.138 241.647 145.493C243.351 146.395 241.829 149.074 240.551 153.028Z" fill="#74BAAB"/>
<path d="M176.147 55.148C174.427 56.9888 172.492 59.004 171.697 56.905C171.204 55.6007 171.435 53.3038 172.676 51.7312C173.652 50.4906 175.403 49.7864 176.902 49.7629C177.68 49.7529 178.354 50.048 178.79 50.5945C179.89 51.986 178.076 53.0825 176.147 55.148Z" fill="#74BAAB"/>
<path d="M63.7428 156.234C63.7662 155.03 63.8132 153.695 64.7354 154.185C65.3089 154.49 66.4123 156.908 65.1479 158.386C64.9098 158.665 64.5577 158.752 64.2391 158.695C63.4309 158.554 63.7159 157.582 63.7428 156.234Z" fill="#74BAAB"/>
<path d="M87.872 187.514C88.0162 187.202 87.758 186.897 87.1141 186.659C85.8296 186.186 83.3311 185.848 78.4851 186.183C74.018 186.491 71.7744 187.434 70.651 188.242C70.0507 188.674 70.0976 188.999 70.6476 189.244C77.4019 190.391 84.3339 189.492 87.872 187.514Z" fill="black"/>
<path d="M205.27 158.799C204.71 156.301 203.171 148.625 203.154 148.548L203.812 148.417C203.828 148.495 205.364 156.16 205.924 158.651L205.27 158.799Z" fill="black"/>
<path d="M212.068 159.613C211.377 158.611 210.774 157.276 210.412 155.955C210.284 155.492 210.167 155.043 210.056 154.61C209.489 152.441 209.043 150.724 207.96 149.735L208.413 149.239C209.644 150.362 210.113 152.163 210.707 154.439C210.817 154.869 210.935 155.315 211.062 155.774C211.408 157.028 211.974 158.289 212.625 159.231L212.068 159.613Z" fill="black"/>
<path d="M215.251 159.767L214.58 159.747C214.597 159.221 214.547 158.533 214.496 157.806C214.446 157.058 214.386 156.213 214.386 155.395C214.386 153.903 214.755 152.447 215.372 151.495L215.935 151.861C215.385 152.709 215.056 154.027 215.056 155.395C215.056 156.186 215.11 156.987 215.164 157.759C215.217 158.503 215.268 159.207 215.251 159.767Z" fill="black"/>
<path d="M236.979 186.438C236.268 186.438 235.567 186.139 235.074 185.566L229.49 179.041L230 178.605L235.584 185.13C236.231 185.888 237.381 185.988 238.149 185.351L254.784 170.206C255.696 169.424 256.722 168.77 257.839 168.261L258.117 168.871C257.057 169.354 256.085 169.974 255.226 170.708L238.589 185.858C238.119 186.247 237.546 186.438 236.979 186.438Z" fill="black"/>
<path d="M238.086 215.606C235.219 215.606 232.197 214.369 229.588 211.063L223.162 203.951L223.658 203.502L230.101 210.63C234.816 216.602 240.937 215.419 244.743 212.599C247.788 210.342 252.027 206.734 257.343 201.872L257.795 202.368C252.463 207.244 248.204 210.868 245.142 213.138C243.204 214.57 240.708 215.606 238.086 215.606Z" fill="black"/>
<path d="M196.329 160.797C195.957 160.143 195.649 159.489 195.33 158.671L195.957 158.43C196.266 159.224 196.551 159.835 196.913 160.465L196.329 160.797Z" fill="black"/>
<path d="M200.28 159.623C199.737 158.607 198.717 156.501 197.993 153.826L198.64 153.651C199.344 156.263 200.34 158.316 200.87 159.305L200.28 159.623Z" fill="black"/>
<path d="M246.571 169.468C241.148 169.468 236.171 166.507 233.582 161.739L234.172 161.417C236.644 165.967 241.396 168.797 246.571 168.797V169.468Z" fill="black"/>
<path d="M155.653 68.5602C155.12 68.5602 154.466 68.2719 153.772 67.7153C153.007 67.105 151.823 66.1494 150.854 65.3715L151.277 64.8484C152.246 65.6296 153.426 66.5819 154.191 67.1922C154.905 67.7656 155.599 68.0204 155.918 67.8259C156.206 67.6516 156.274 67.0581 156.109 66.193C155.911 65.1602 155.962 64.332 156.263 63.7251L156.864 64.0235C156.703 64.3488 156.555 64.9657 156.766 66.0655C156.998 67.2727 156.83 68.0573 156.263 68.3993C156.086 68.5066 155.878 68.5602 155.653 68.5602Z" fill="black"/>
<path d="M180.195 72.2221L179.715 71.7527L188.696 62.5586C191.849 59.3296 196.96 59.1552 200.327 62.1596L199.881 62.6592C196.782 59.8929 192.08 60.0538 189.179 63.0246L180.195 72.2221Z" fill="black"/>
<path d="M200.205 73.9037L191.093 83.0586L191.568 83.5316L200.681 74.3767L200.205 73.9037Z" fill="black"/>
<path d="M55.9889 160.864L53.9432 157.836C53.2221 156.884 52.1523 156.263 50.9484 156.106C49.7444 155.952 48.5539 156.277 47.5981 157.025L47.1855 156.498C48.2855 155.636 49.6505 155.261 51.0356 155.442C52.4206 155.623 53.6447 156.334 54.4898 157.447L56.5456 160.488L55.9889 160.864Z" fill="black"/>
<path d="M67.1864 177.09L66.7891 184.899L67.4589 184.933L67.8562 177.124L67.1864 177.09Z" fill="black"/>
<path d="M87.3716 167.516L86.7212 167.68L89.9997 180.686L90.6501 180.522L87.3716 167.516Z" fill="black"/>
</g>

</svg>
