<svg width="151" height="90" viewBox="0 0 151 90" fill="none" xmlns="http://www.w3.org/2000/svg">
<g clip-path="url(#clip0_16_53)">
<path d="M115.609 88.9822C113.676 87.3537 112.502 84.7811 112.81 82.2767C113.118 79.7722 115.025 77.4699 117.499 76.938C119.973 76.4062 122.793 77.8784 123.545 80.2878C123.959 75.6426 124.435 70.8027 126.912 66.8468C129.156 63.2649 133.041 60.7019 137.251 60.2434C141.462 59.7848 145.895 61.5166 148.521 64.8298C151.147 68.143 151.79 72.9598 149.951 76.7636C148.596 79.5658 146.1 81.6512 143.485 83.3477C135.034 88.7838 124.898 90.9944 114.942 89.5729L115.609 88.9822Z" fill="#F2F2F2"/>
<path d="M144.357 61.6127C140.883 64.4338 137.696 67.5891 134.842 71.0329C130.375 76.4038 126.76 82.4257 124.124 88.8886C123.931 89.3601 124.699 89.5653 124.889 89.0991C129.203 78.5955 136.09 69.3377 144.919 62.1725C145.315 61.8506 144.751 61.2935 144.357 61.6127Z" fill="white"/>
<path d="M48.6093 88.5398C51.2646 86.303 52.8774 82.7695 52.4545 79.3297C52.0315 75.8898 49.4118 72.7275 46.0136 71.9971C42.6154 71.2666 38.7418 73.2887 37.7096 76.598C37.1416 70.2177 36.487 63.5702 33.0844 58.1368C30.0035 53.217 24.6672 49.6967 18.8839 49.0669C13.1006 48.4371 7.01147 50.8157 3.40463 55.3664C-0.202218 59.9171 -1.08534 66.5329 1.4408 71.7575C3.30172 75.6062 6.73019 78.4705 10.3224 80.8008C21.7827 88.2351 35.9992 91.3357 49.5264 89.351" fill="#F2F2F2"/>
<path d="M9.12363 50.9475C13.8956 54.8224 18.2733 59.1562 22.1936 63.8861C26.1145 68.6112 29.5664 73.7044 32.5008 79.0939C34.1411 82.1172 35.6145 85.2276 36.9146 88.411C37.1797 89.0586 36.1249 89.3405 35.8628 88.7001C33.56 83.0877 30.711 77.7138 27.3566 72.6555C24.0186 67.6155 20.198 62.9102 15.9485 58.6056C13.545 56.1722 11.0091 53.8723 8.35231 51.7165C7.80774 51.2744 8.58355 50.5091 9.12363 50.9475L9.12363 50.9475Z" fill="white"/>
<path d="M108.39 89.803H45.0397V25.003C45.0397 11.2163 56.2904 0 70.1195 0H83.3104C97.1395 0 108.39 11.2163 108.39 25.003V89.803Z" fill="#F2F2F2"/>
<path d="M95.1994 89.8031H45.0396V25.003C45.0258 19.7203 46.7038 14.571 49.8292 10.305C49.9444 10.1485 50.0594 9.99394 50.1779 9.8411C51.6897 7.86441 53.4887 6.12356 55.5157 4.67603C55.6302 4.59298 55.7451 4.51136 55.8618 4.42975C57.5579 3.25961 59.3926 2.30305 61.3242 1.58184C61.4389 1.53849 61.5557 1.49507 61.6725 1.45341C63.4194 0.831898 65.2303 0.406164 67.0717 0.184071C67.1859 0.168524 67.3031 0.156358 67.4203 0.144193C69.2148 -0.0470877 71.0246 -0.0470877 72.8191 0.144193C72.9359 0.156358 73.0531 0.168523 73.1687 0.184237C75.0096 0.406345 76.82 0.832027 78.5665 1.45342C78.6834 1.49507 78.8001 1.5385 78.9152 1.58193C80.8229 2.29404 82.6361 3.23633 84.3141 4.38776C84.4307 4.4676 84.5474 4.54922 84.6623 4.63083C85.7985 5.43936 86.8657 6.34011 87.8531 7.32388C88.6448 8.11298 89.3826 8.95411 90.0615 9.84162C90.1797 9.99395 90.2946 10.1485 90.4096 10.3048C93.5352 14.5708 95.2132 19.7202 95.1994 25.003V89.8031Z" fill="#CCCCCC"/>
<path d="M91.1206 60.8203C92.6543 60.8203 93.8976 59.5808 93.8976 58.0518C93.8976 56.5228 92.6543 55.2833 91.1206 55.2833C89.5869 55.2833 88.3436 56.5228 88.3436 58.0518C88.3436 59.5808 89.5869 60.8203 91.1206 60.8203Z" fill="#8953FE"/>
<path d="M103.201 87.8621H101.073L100.06 79.6798L103.201 79.68L103.201 87.8621Z" fill="#FFB8B8"/>
<path d="M99.5527 87.256H103.656V89.8319H96.9689C96.9689 89.4936 97.0357 89.1586 97.1656 88.8461C97.2954 88.5336 97.4857 88.2496 97.7257 88.0104C97.9656 87.7712 98.2504 87.5815 98.5639 87.4521C98.8774 87.3226 99.2134 87.256 99.5527 87.256Z" fill="#2F2E41"/>
<path d="M113.788 87.8621H111.66L110.648 79.6798L113.788 79.68L113.788 87.8621Z" fill="#FFB8B8"/>
<path d="M110.14 87.256H114.244V89.8319H107.556C107.556 89.4936 107.623 89.1586 107.753 88.8461C107.883 88.5336 108.073 88.2496 108.313 88.0104C108.553 87.7712 108.838 87.5815 109.151 87.4521C109.465 87.3226 109.801 87.256 110.14 87.256Z" fill="#2F2E41"/>
<path d="M92.5261 58.6003C92.3731 58.3755 92.2713 58.1199 92.228 57.8516C92.1847 57.5833 92.201 57.3088 92.2756 57.0475C92.3502 56.7861 92.4815 56.5442 92.66 56.3389C92.8385 56.1336 93.0601 55.9697 93.309 55.859L100.542 35.9835L104.102 37.92L95.8427 56.9137C96.0016 57.3429 95.9971 57.8153 95.8299 58.2414C95.6628 58.6675 95.3447 59.0177 94.9359 59.2256C94.5271 59.4335 94.056 59.4847 93.6118 59.3694C93.1677 59.2542 92.7814 58.9806 92.5261 58.6003Z" fill="#FFB8B8"/>
<path d="M112.701 62.335C112.464 62.1998 112.261 62.0146 112.104 61.7924C111.947 61.5702 111.841 61.3164 111.793 61.0489C111.745 60.7813 111.756 60.5066 111.827 60.244C111.897 59.9814 112.024 59.7374 112.199 59.529L109.958 38.5042L114.009 38.6886L114.94 59.3694C115.271 59.6856 115.475 60.1122 115.512 60.5682C115.55 61.0243 115.418 61.478 115.142 61.8436C114.866 62.2091 114.465 62.4611 114.015 62.5516C113.565 62.6422 113.098 62.5651 112.701 62.335Z" fill="#FFB8B8"/>
<path d="M106.239 32.302C108.593 32.302 110.502 30.3993 110.502 28.0522C110.502 25.7051 108.593 23.8024 106.239 23.8024C103.885 23.8024 101.976 25.7051 101.976 28.0522C101.976 30.3993 103.885 32.302 106.239 32.302Z" fill="#FFB8B8"/>
<path d="M112.674 57.5532H99.8219L99.8374 57.4535C99.8605 57.3045 102.128 42.4969 100.456 37.6526C100.288 37.1765 100.303 36.6554 100.497 36.1895C100.691 35.7237 101.052 35.346 101.509 35.1292H101.509C103.899 34.007 108.488 32.6252 112.36 35.9786C112.93 36.4802 113.375 37.1071 113.66 37.8097C113.945 38.5123 114.062 39.2714 114.002 40.0268L112.674 57.5532Z" fill="#8953FE"/>
<path d="M102.29 44.6853L96.5043 43.5151L99.2164 37.1078C99.3787 36.4872 99.7813 35.9561 100.336 35.6311C100.89 35.306 101.552 35.2135 102.174 35.3738C102.797 35.5341 103.331 35.9341 103.658 36.4862C103.986 37.0382 104.08 37.6972 103.921 38.3186L102.29 44.6853Z" fill="#8953FE"/>
<path d="M109.701 46.8581L109.353 38.9089C109.089 37.4145 109.947 36.0019 111.267 35.771C112.587 35.5409 113.876 36.5773 114.141 38.0827L115.448 45.5105L109.701 46.8581Z" fill="#8953FE"/>
<path d="M112.246 56.6016C114.314 64.4531 114.54 74.4357 113.982 85.3247L111.205 84.9786L106.171 64.2149L103.394 85.3247L100.27 85.1516C99.3369 73.7265 98.4281 63.9181 99.9231 57.4667L112.246 56.6016Z" fill="#2F2E41"/>
<path d="M109.048 31.3365C108.253 32.1811 106.776 31.7277 106.672 30.574C106.664 30.4844 106.664 30.3942 106.674 30.3048C106.727 29.7937 107.023 29.3297 106.953 28.7901C106.936 28.6558 106.886 28.5279 106.807 28.4183C106.173 27.5723 104.685 28.7967 104.087 28.0308C103.721 27.5612 104.152 26.8218 103.87 26.297C103.499 25.6042 102.399 25.946 101.709 25.5666C100.941 25.1445 100.987 23.9703 101.492 23.2562C102.109 22.3852 103.189 21.9204 104.256 21.8535C105.323 21.7865 106.383 22.074 107.379 22.4611C108.511 22.9008 109.633 23.5085 110.329 24.5007C111.176 25.7072 111.258 27.3294 110.834 28.7402C110.577 29.5985 109.697 30.6469 109.048 31.3365Z" fill="#2F2E41"/>
<path d="M145.79 89.9144H17.6492C17.5945 89.9142 17.5421 89.8924 17.5034 89.8538C17.4648 89.8152 17.4431 89.7629 17.4431 89.7083C17.4431 89.6538 17.4648 89.6015 17.5034 89.5629C17.5421 89.5243 17.5945 89.5025 17.6492 89.5023H145.79C145.845 89.5025 145.897 89.5243 145.936 89.5629C145.974 89.6015 145.996 89.6538 145.996 89.7083C145.996 89.7629 145.974 89.8152 145.936 89.8538C145.897 89.8924 145.845 89.9142 145.79 89.9144Z" fill="#3F3D56"/>
<path d="M81.4011 71.0292H58.8379C58.5407 71.0308 58.2551 70.9148 58.0436 70.7067C57.8321 70.4986 57.712 70.2154 57.7097 69.9192V19.7109C57.712 19.4147 57.8321 19.1314 58.0436 18.9233C58.2551 18.7152 58.5407 18.5993 58.8379 18.6008H81.4011C81.6982 18.5993 81.9839 18.7152 82.1954 18.9233C82.4069 19.1314 82.527 19.4147 82.5293 19.7109V69.9192C82.527 70.2154 82.4069 70.4986 82.1954 70.7067C81.9839 70.9148 81.6982 71.0308 81.4011 71.0292Z" fill="white"/>
<path d="M82.5293 34.8466H57.7097V35.1926H82.5293V34.8466Z" fill="#CCCCCC"/>
<path d="M82.616 54.5912H57.7965V54.9372H82.616V54.5912Z" fill="#CCCCCC"/>
<path d="M65.8673 18.6008H65.5201V71.2022H65.8673V18.6008Z" fill="#CCCCCC"/>
<path d="M74.5454 18.6008H74.1982V71.2022H74.5454V18.6008Z" fill="#CCCCCC"/>
</g>
<defs>
<clipPath id="clip0_16_53">
<rect width="151" height="90" fill="white"/>
</clipPath>
</defs>
</svg>
