<svg width="124" height="109" viewBox="0 0 124 109" fill="none" xmlns="http://www.w3.org/2000/svg">
<g clip-path="url(#clip0_179_681)">
<path d="M108.03 105.056V94.2539C108.03 94.2539 112.237 101.912 108.03 105.056Z" fill="#F1F1F1"/>
<path d="M108.29 105.053L100.338 97.7485C100.338 97.7485 108.821 99.8264 108.29 105.053Z" fill="#F1F1F1"/>
<path d="M15.8856 105.056V94.2539C15.8856 94.2539 11.6789 101.912 15.8856 105.056Z" fill="#F1F1F1"/>
<path d="M15.6258 105.053L23.5775 97.7485C23.5775 97.7485 15.0952 99.8264 15.6258 105.053Z" fill="#F1F1F1"/>
<path d="M88.1513 24.9432H87.575V9.14409C87.575 7.94327 87.3386 6.75421 86.8794 5.6448C86.4202 4.53539 85.7471 3.52735 84.8985 2.67824C84.05 1.82914 83.0426 1.15559 81.934 0.696055C80.8253 0.236521 79.637 9.80451e-07 78.437 0H44.9868C43.7867 -2.5491e-06 42.5985 0.236514 41.4898 0.696045C40.3811 1.15558 39.3738 1.82912 38.5252 2.67823C37.6767 3.52733 37.0036 4.53537 36.5444 5.64478C36.0851 6.75419 35.8488 7.94324 35.8488 9.14406V95.8191C35.8488 98.2443 36.8115 100.57 38.5252 102.285C40.2389 104 42.5632 104.963 44.9867 104.963H78.437C80.8605 104.963 83.1848 104 84.8985 102.285C86.6122 100.57 87.575 98.2443 87.575 95.8192V36.1892H88.1513V24.9432Z" fill="#3F3D56"/>
<path d="M78.8057 2.3794H74.4393C74.6401 2.87202 74.7168 3.40649 74.6625 3.93573C74.6083 4.46498 74.4248 4.97275 74.1282 5.41432C73.8317 5.85589 73.4312 6.2177 72.9619 6.46788C72.4927 6.71807 71.9692 6.84894 71.4376 6.84898H52.2744C51.7427 6.84894 51.2192 6.71807 50.75 6.46788C50.2808 6.2177 49.8802 5.85589 49.5837 5.41432C49.2871 4.97275 49.1036 4.46498 49.0494 3.93573C48.9951 3.40649 49.0718 2.87201 49.2726 2.37939H45.1944C43.3845 2.37939 41.6488 3.09884 40.369 4.37947C39.0892 5.6601 38.3702 7.397 38.3702 9.20808V95.756C38.3702 96.6527 38.5467 97.5407 38.8897 98.3692C39.2326 99.1977 39.7353 99.9505 40.369 100.585C41.0027 101.219 41.755 101.722 42.5829 102.065C43.4108 102.408 44.2982 102.585 45.1944 102.585H78.8057C79.7019 102.585 80.5892 102.408 81.4172 102.065C82.2451 101.722 82.9974 101.219 83.6311 100.585C84.2648 99.9505 84.7675 99.1977 85.1104 98.3692C85.4533 97.5407 85.6299 96.6527 85.6299 95.756V9.20809C85.6299 8.31133 85.4533 7.42336 85.1104 6.59486C84.7675 5.76637 84.2648 5.01358 83.6311 4.37947C82.9974 3.74537 82.2451 3.24237 81.4172 2.8992C80.5892 2.55603 79.7019 2.3794 78.8057 2.3794Z" fill="white"/>
<path d="M77.9637 101.098H46.0363C42.3678 101.098 39.3832 98.4328 39.3832 95.1562V90.8543C39.3832 88.2428 41.7601 86.1182 44.6816 86.1182H79.3184C82.2399 86.1182 84.6168 88.2428 84.6168 90.8543V95.1562C84.6168 98.4328 81.6323 101.098 77.9637 101.098Z" fill="#E5E5E5"/>
<path d="M49.3924 28.7951H42.2706C42.1431 28.795 42.0207 28.7442 41.9305 28.6539C41.8403 28.5637 41.7896 28.4413 41.7894 28.3136V21.1871C41.7896 21.0594 41.8403 20.937 41.9305 20.8468C42.0207 20.7565 42.1431 20.7057 42.2706 20.7056H49.3924C49.52 20.7057 49.6423 20.7565 49.7325 20.8468C49.8227 20.937 49.8735 21.0594 49.8736 21.1871V28.3136C49.8735 28.4413 49.8227 28.5637 49.7325 28.6539C49.6423 28.7442 49.52 28.795 49.3924 28.7951Z" fill="#6C63FF"/>
<path d="M60.1715 28.7951H53.0497C52.9221 28.795 52.7998 28.7442 52.7096 28.6539C52.6194 28.5637 52.5686 28.4413 52.5685 28.3136V21.1871C52.5686 21.0594 52.6194 20.937 52.7096 20.8468C52.7998 20.7565 52.9221 20.7057 53.0497 20.7056H60.1715C60.299 20.7057 60.4214 20.7565 60.5116 20.8468C60.6018 20.937 60.6525 21.0594 60.6527 21.1871V28.3136C60.6525 28.4413 60.6018 28.5637 60.5116 28.6539C60.4214 28.7442 60.299 28.795 60.1715 28.7951Z" fill="#E5E5E5"/>
<path d="M70.9504 28.7951H63.8286C63.701 28.795 63.5787 28.7442 63.4885 28.6539C63.3983 28.5637 63.3476 28.4413 63.3474 28.3136V21.1871C63.3476 21.0594 63.3983 20.937 63.4885 20.8468C63.5787 20.7565 63.701 20.7057 63.8286 20.7056H70.9504C71.078 20.7057 71.2003 20.7565 71.2905 20.8468C71.3807 20.937 71.4315 21.0594 71.4316 21.1871V28.3136C71.4315 28.4413 71.3807 28.5637 71.2905 28.6539C71.2003 28.7442 71.078 28.795 70.9504 28.7951Z" fill="#E5E5E5"/>
<path d="M81.7292 28.7951H74.6074C74.4799 28.795 74.3575 28.7442 74.2673 28.6539C74.1771 28.5637 74.1264 28.4413 74.1262 28.3136V21.1871C74.1264 21.0594 74.1771 20.937 74.2673 20.8468C74.3575 20.7565 74.4799 20.7057 74.6074 20.7056H81.7292C81.8568 20.7057 81.9791 20.7565 82.0693 20.8468C82.1595 20.937 82.2103 21.0594 82.2104 21.1871V28.3136C82.2103 28.4413 82.1595 28.5637 82.0693 28.6539C81.9791 28.7442 81.8568 28.795 81.7292 28.7951Z" fill="#E5E5E5"/>
<path d="M49.367 41.9885H42.2452C42.1177 41.9884 41.9954 41.9376 41.9051 41.8473C41.8149 41.757 41.7642 41.6347 41.764 41.507V34.3805C41.7642 34.2528 41.8149 34.1304 41.9051 34.0401C41.9954 33.9499 42.1177 33.8991 42.2452 33.8989H49.367C49.4946 33.8991 49.6169 33.9499 49.7071 34.0401C49.7973 34.1304 49.8481 34.2528 49.8482 34.3805V41.507C49.8481 41.6347 49.7973 41.757 49.7071 41.8473C49.6169 41.9376 49.4946 41.9884 49.367 41.9885Z" fill="#E5E5E5"/>
<path d="M60.146 41.9885H53.0242C52.8966 41.9884 52.7743 41.9376 52.6841 41.8473C52.5939 41.757 52.5431 41.6347 52.543 41.507V34.3805C52.5431 34.2528 52.5939 34.1304 52.6841 34.0401C52.7743 33.9499 52.8966 33.8991 53.0242 33.8989H60.146C60.2735 33.8991 60.3958 33.9499 60.4861 34.0401C60.5763 34.1304 60.627 34.2528 60.6272 34.3805V41.507C60.627 41.6347 60.5763 41.757 60.4861 41.8473C60.3958 41.9376 60.2735 41.9884 60.146 41.9885Z" fill="#E5E5E5"/>
<path d="M70.9249 41.9885H63.8031C63.6755 41.9884 63.5532 41.9376 63.463 41.8473C63.3728 41.757 63.322 41.6347 63.3219 41.507V34.3805C63.322 34.2528 63.3728 34.1304 63.463 34.0401C63.5532 33.9499 63.6755 33.8991 63.8031 33.8989H70.9249C71.0525 33.8991 71.1748 33.9499 71.265 34.0401C71.3552 34.1304 71.406 34.2528 71.4061 34.3805V41.507C71.406 41.6347 71.3552 41.757 71.265 41.8473C71.1748 41.9376 71.0525 41.9884 70.9249 41.9885Z" fill="#6C63FF"/>
<path d="M81.7038 41.9885H74.582C74.4545 41.9884 74.3322 41.9376 74.2419 41.8473C74.1517 41.757 74.101 41.6347 74.1008 41.507V34.3805C74.101 34.2528 74.1517 34.1304 74.2419 34.0401C74.3322 33.9499 74.4545 33.8991 74.582 33.8989H81.7038C81.8314 33.8991 81.9537 33.9499 82.0439 34.0401C82.1342 34.1304 82.1849 34.2528 82.185 34.3805V41.507C82.1849 41.6347 82.1342 41.757 82.0439 41.8473C81.9537 41.9376 81.8314 41.9884 81.7038 41.9885Z" fill="#6C63FF"/>
<path d="M49.3415 55.1824H42.2197C42.0921 55.1822 41.9698 55.1314 41.8796 55.0411C41.7894 54.9509 41.7387 54.8285 41.7385 54.7008V47.5743C41.7387 47.4466 41.7894 47.3242 41.8796 47.234C41.9698 47.1437 42.0921 47.0929 42.2197 47.0928H49.3415C49.4691 47.0929 49.5914 47.1437 49.6816 47.234C49.7718 47.3242 49.8226 47.4466 49.8227 47.5743V54.7008C49.8226 54.8285 49.7718 54.9509 49.6816 55.0411C49.5914 55.1314 49.4691 55.1822 49.3415 55.1824Z" fill="#E5E5E5"/>
<path d="M60.1204 55.1824H52.9987C52.8711 55.1822 52.7488 55.1314 52.6586 55.0411C52.5683 54.9509 52.5176 54.8285 52.5175 54.7008V47.5743C52.5176 47.4466 52.5683 47.3242 52.6586 47.234C52.7488 47.1437 52.8711 47.0929 52.9987 47.0928H60.1204C60.248 47.0929 60.3703 47.1437 60.4605 47.234C60.5508 47.3242 60.6015 47.4466 60.6017 47.5743V54.7008C60.6015 54.8285 60.5508 54.9509 60.4605 55.0411C60.3703 55.1314 60.248 55.1822 60.1204 55.1824Z" fill="#E5E5E5"/>
<path d="M70.8994 55.1824H63.7776C63.65 55.1822 63.5277 55.1314 63.4375 55.0411C63.3473 54.9509 63.2965 54.8285 63.2964 54.7008V47.5743C63.2965 47.4466 63.3473 47.3242 63.4375 47.234C63.5277 47.1437 63.65 47.0929 63.7776 47.0928H70.8994C71.027 47.0929 71.1493 47.1437 71.2395 47.234C71.3297 47.3242 71.3804 47.4466 71.3806 47.5743V54.7008C71.3804 54.8285 71.3297 54.9509 71.2395 55.0411C71.1493 55.1314 71.0269 55.1822 70.8994 55.1824Z" fill="#E5E5E5"/>
<path d="M81.6783 55.1824H74.5565C74.4289 55.1822 74.3066 55.1314 74.2164 55.0411C74.1262 54.9509 74.0755 54.8285 74.0753 54.7008V47.5743C74.0755 47.4466 74.1262 47.3242 74.2164 47.234C74.3066 47.1437 74.4289 47.0929 74.5565 47.0928H81.6783C81.8059 47.0929 81.9282 47.1437 82.0184 47.234C82.1086 47.3242 82.1594 47.4466 82.1595 47.5743V54.7008C82.1594 54.8285 82.1086 54.9509 82.0184 55.0411C81.9282 55.1314 81.8059 55.1822 81.6783 55.1824Z" fill="#E5E5E5"/>
<path d="M49.3161 68.3762H42.1943C42.0668 68.3761 41.9445 68.3253 41.8542 68.235C41.764 68.1448 41.7133 68.0224 41.7131 67.8947V60.7681C41.7133 60.6405 41.764 60.5181 41.8542 60.4278C41.9445 60.3376 42.0668 60.2868 42.1943 60.2866H49.3161C49.4437 60.2868 49.566 60.3376 49.6562 60.4278C49.7464 60.5181 49.7972 60.6405 49.7973 60.7681V67.8947C49.7972 68.0224 49.7464 68.1448 49.6562 68.235C49.566 68.3253 49.4437 68.3761 49.3161 68.3762Z" fill="#E5E5E5"/>
<path d="M60.0949 68.3762H52.9731C52.8456 68.3761 52.7233 68.3253 52.633 68.235C52.5428 68.1448 52.4921 68.0224 52.4919 67.8947V60.7681C52.4921 60.6405 52.5428 60.5181 52.633 60.4278C52.7233 60.3376 52.8456 60.2868 52.9731 60.2866H60.0949C60.2225 60.2868 60.3448 60.3376 60.435 60.4278C60.5252 60.5181 60.576 60.6405 60.5761 60.7681V67.8947C60.576 68.0224 60.5252 68.1448 60.435 68.235C60.3448 68.3253 60.2225 68.3761 60.0949 68.3762Z" fill="#E5E5E5"/>
<path d="M70.874 68.3762H63.7522C63.6246 68.3761 63.5023 68.3253 63.4121 68.235C63.3219 68.1448 63.2711 68.0224 63.271 67.8947V60.7681C63.2711 60.6405 63.3219 60.5181 63.4121 60.4278C63.5023 60.3376 63.6246 60.2868 63.7522 60.2866H70.874C71.0016 60.2868 71.1239 60.3376 71.2141 60.4278C71.3043 60.5181 71.3551 60.6405 71.3552 60.7681V67.8947C71.3551 68.0224 71.3043 68.1448 71.2141 68.235C71.1239 68.3253 71.0016 68.3761 70.874 68.3762Z" fill="#E5E5E5"/>
<path d="M81.6528 68.3762H74.531C74.4034 68.3761 74.2811 68.3253 74.1909 68.235C74.1007 68.1448 74.05 68.0224 74.0498 67.8947V60.7681C74.05 60.6405 74.1007 60.5181 74.1909 60.4278C74.2811 60.3376 74.4034 60.2868 74.531 60.2866H81.6528C81.7804 60.2868 81.9027 60.3376 81.9929 60.4278C82.0831 60.5181 82.1339 60.6405 82.134 60.7681V67.8947C82.1339 68.0224 82.0831 68.1448 81.9929 68.235C81.9027 68.3253 81.7804 68.3761 81.6528 68.3762Z" fill="#E5E5E5"/>
<path d="M49.3924 97.8459H42.2706C42.1431 97.8458 42.0207 97.795 41.9305 97.7047C41.8403 97.6145 41.7896 97.4921 41.7894 97.3644V90.2379C41.7896 90.1102 41.8403 89.9878 41.9305 89.8976C42.0207 89.8073 42.1431 89.7565 42.2706 89.7563H49.3924C49.52 89.7565 49.6423 89.8073 49.7325 89.8976C49.8227 89.9878 49.8735 90.1102 49.8736 90.2379V97.3644C49.8735 97.4921 49.8227 97.6145 49.7325 97.7047C49.6423 97.795 49.52 97.8458 49.3924 97.8459Z" fill="white"/>
<path d="M60.1715 97.8459H53.0497C52.9221 97.8458 52.7998 97.795 52.7096 97.7047C52.6194 97.6145 52.5686 97.4921 52.5685 97.3644V90.2379C52.5686 90.1102 52.6194 89.9878 52.7096 89.8975C52.7998 89.8073 52.9221 89.7565 53.0497 89.7563H60.1715C60.299 89.7565 60.4214 89.8073 60.5116 89.8975C60.6018 89.9878 60.6525 90.1102 60.6527 90.2379V97.3644C60.6525 97.4921 60.6018 97.6145 60.5116 97.7047C60.4214 97.795 60.299 97.8458 60.1715 97.8459Z" fill="white"/>
<path d="M70.9504 97.8459H63.8286C63.701 97.8458 63.5787 97.795 63.4885 97.7047C63.3983 97.6145 63.3476 97.4921 63.3474 97.3644V90.2379C63.3476 90.1102 63.3983 89.9878 63.4885 89.8975C63.5787 89.8073 63.701 89.7565 63.8286 89.7563H70.9504C71.078 89.7565 71.2003 89.8073 71.2905 89.8975C71.3807 89.9878 71.4315 90.1102 71.4316 90.2379V97.3644C71.4315 97.4921 71.3807 97.6145 71.2905 97.7047C71.2003 97.795 71.078 97.8458 70.9504 97.8459Z" fill="white"/>
<path d="M81.7292 97.8459H74.6074C74.4799 97.8458 74.3575 97.795 74.2673 97.7047C74.1771 97.6145 74.1264 97.4921 74.1262 97.3644V90.2379C74.1264 90.1102 74.1771 89.9878 74.2673 89.8976C74.3575 89.8073 74.4799 89.7565 74.6074 89.7563H81.7292C81.8568 89.7565 81.9791 89.8073 82.0693 89.8976C82.1595 89.9878 82.2103 90.1102 82.2104 90.2379V97.3644C82.2103 97.4921 82.1595 97.6145 82.0693 97.7047C81.9791 97.795 81.8568 97.8458 81.7292 97.8459Z" fill="white"/>
<path d="M58.5098 82.8221C59.0413 82.8221 59.4722 82.3909 59.4722 81.859C59.4722 81.3272 59.0413 80.896 58.5098 80.896C57.9782 80.896 57.5474 81.3272 57.5474 81.859C57.5474 82.3909 57.9782 82.8221 58.5098 82.8221Z" fill="#E5E5E5"/>
<path d="M61.9745 82.8221C62.506 82.8221 62.9369 82.3909 62.9369 81.859C62.9369 81.3272 62.506 80.896 61.9745 80.896C61.443 80.896 61.0121 81.3272 61.0121 81.859C61.0121 82.3909 61.443 82.8221 61.9745 82.8221Z" fill="#E5E5E5"/>
<path d="M65.4392 82.8221C65.9707 82.8221 66.4016 82.3909 66.4016 81.859C66.4016 81.3272 65.9707 80.896 65.4392 80.896C64.9077 80.896 64.4768 81.3272 64.4768 81.859C64.4768 82.3909 64.9077 82.8221 65.4392 82.8221Z" fill="#E5E5E5"/>
<path d="M123.851 105.119H0.149218C0.109643 105.119 0.0716885 105.104 0.0437048 105.076C0.015721 105.048 0 105.01 0 104.97C0 104.931 0.015721 104.893 0.0437048 104.865C0.0716885 104.837 0.109643 104.821 0.149218 104.821H123.851C123.89 104.821 123.928 104.837 123.956 104.865C123.984 104.893 124 104.931 124 104.97C124 105.01 123.984 105.048 123.956 105.076C123.928 105.104 123.89 105.119 123.851 105.119Z" fill="#CBCBCB"/>
<path d="M48.6994 75.7192C48.9008 75.5178 49.0555 75.2747 49.1528 75.007C49.2501 74.7393 49.2875 74.4535 49.2625 74.1697C49.2375 73.886 49.1506 73.6112 49.0079 73.3647C48.8653 73.1182 48.6703 72.906 48.4369 72.743L50.3163 66.0791L46.8897 67.1696L45.6302 73.3306C45.3826 73.7412 45.2942 74.2285 45.3816 74.7C45.469 75.1715 45.7263 75.5946 46.1046 75.889C46.4829 76.1834 46.956 76.3288 47.4343 76.2975C47.9125 76.2662 48.3627 76.0604 48.6994 75.7192Z" fill="#FFB7B7"/>
<path d="M49.6737 71.6342C49.6125 71.646 49.5502 71.6512 49.4879 71.65L46.2007 71.584C46.077 71.5816 45.9552 71.5527 45.8435 71.4995C45.7318 71.4463 45.6327 71.3698 45.5528 71.2753C45.4729 71.1807 45.414 71.0703 45.3801 70.9512C45.3462 70.8321 45.3381 70.7072 45.3562 70.5847L48.6908 48.0391C48.7904 47.387 49.1197 46.792 49.6193 46.3617C50.119 45.9313 50.7559 45.6939 51.4151 45.6924C51.8314 45.6934 52.242 45.7891 52.6159 45.9722C52.9898 46.1553 53.3172 46.421 53.5735 46.7492C53.8297 47.0775 54.0081 47.4597 54.0951 47.8671C54.1821 48.2744 54.1755 48.6962 54.0757 49.1006L51.712 58.6803L50.3716 70.8736C50.3521 71.0585 50.2738 71.2323 50.1481 71.3692C50.0225 71.5062 49.8561 71.5991 49.6737 71.6342Z" fill="#3F3D56"/>
<path d="M51.0482 107.225H52.8776L53.748 100.165L51.0479 100.165L51.0482 107.225Z" fill="#FFB7B7"/>
<path d="M50.5815 106.628L54.1843 106.628H54.1844C54.7933 106.628 55.3773 106.87 55.8078 107.301C56.2384 107.732 56.4803 108.316 56.4803 108.925V109L50.5817 109L50.5815 106.628Z" fill="#2F2E41"/>
<path d="M58.8489 106.631L60.6668 106.835L62.3182 99.9148L59.635 99.6138L58.8489 106.631Z" fill="#FFB7B7"/>
<path d="M58.4515 105.985L62.0318 106.387L62.0319 106.387C62.637 106.455 63.1904 106.761 63.5703 107.237C63.9502 107.713 64.1255 108.321 64.0577 108.926L64.0493 109L58.1874 108.343L58.4515 105.985Z" fill="#2F2E41"/>
<path d="M49.3312 67.9328C49.3312 67.9328 46.8231 73.4887 49.038 77.0974L50.3575 105.194H53.3871L56.3262 82.4979L61.5488 89.2172L58.3669 104.9L62.0722 105.108L67.2191 89.2172C67.2191 89.2172 63.2651 71.695 61.9593 71.2731L61.1012 67.2676L49.3312 67.9328Z" fill="#2F2E41"/>
<path d="M48.2149 72.8105C48.2149 72.8105 45.9555 75.4054 51.9242 76.3013C57.8929 77.1972 64.1601 75.8533 64.3093 74.0615C64.4585 72.2697 48.2149 72.8105 48.2149 72.8105Z" fill="#CBCBCB"/>
<path d="M78.1357 40.6223C78.1264 40.8756 78.0618 41.1238 77.9463 41.3493C77.8308 41.5749 77.6673 41.7725 77.4673 41.928C77.2673 42.0835 77.0357 42.1933 76.7887 42.2495C76.5417 42.3058 76.2854 42.3071 76.0378 42.2535L73.7817 45.5093L71.4701 44.6199L74.7207 40.0669C74.8383 39.6567 75.1021 39.3039 75.4622 39.0753C75.8224 38.8468 76.2538 38.7583 76.6747 38.8268C77.0956 38.8952 77.4769 39.1158 77.7461 39.4467C78.0154 39.7777 78.154 40.1959 78.1357 40.6223Z" fill="#FFB7B7"/>
<path d="M59.055 44.8112L55.8651 43.3672L51.7781 43.6595C51.7781 43.6595 46.8508 49.4241 48.7907 54.9489L47.5969 74.2108C55.207 76.3013 58.6664 72.3805 64.1601 74.0615L62.4632 52.654L59.055 44.8112Z" fill="#3F3D56"/>
<path d="M56.923 46.214L59.0549 44.8114C59.0549 44.8114 62.0164 44.3635 63.2001 45.5127C63.2001 45.5127 67.218 45.8492 68.1884 46.8529L69.2569 47.0939L72.8063 42.4946L74.9783 43.6756L71.8448 52.1867L62.4631 52.6541L56.923 46.214Z" fill="#3F3D56"/>
<path d="M57.6587 41.7474C60.0988 40.4126 60.9956 37.3511 59.6617 34.9093C58.3278 32.4675 55.2683 31.5701 52.8282 32.9049C50.388 34.2397 49.4913 37.3012 50.8252 39.743C52.1591 42.1848 55.2185 43.0822 57.6587 41.7474Z" fill="#FFB7B7"/>
<path d="M50.8882 33.387C51.787 31.7694 52.9102 30.722 54.7594 30.7598C56.6087 30.7976 58.2083 30.7244 59.0403 32.3775C59.2602 31.9655 59.3703 31.5037 59.3601 31.0367C59.6113 31.1999 59.8093 31.4332 59.9297 31.7076C60.0501 31.9821 60.0875 32.2858 60.0374 32.5814C60.1993 32.4865 60.3347 32.3525 60.4314 32.1917C60.528 32.0308 60.5828 31.8483 60.5907 31.6608C61.2078 31.8663 61.3683 32.7366 61.056 33.3076C60.7437 33.8785 60.1313 34.2087 59.5437 34.4878C58.9561 34.7669 59.2274 36.243 58.8437 36.7686C58.5759 37.1354 58.4534 37.5849 58.2729 38.0017C58.2654 38.0182 58.2525 38.0316 58.2364 38.0399C57.8226 38.2707 57.5615 38.6832 57.6345 39.1516C57.6432 39.1867 57.6411 39.2236 57.6287 39.2575C57.1049 40.245 56.5395 41.2781 55.5901 41.8673C54.8282 42.3276 53.9158 42.4688 53.0506 42.2601C52.0801 42.0279 51.2412 41.3841 50.6362 40.5901C50.0313 39.7961 49.6421 38.8576 49.3497 37.903C49.0904 37.0562 48.9017 36.1507 49.1074 35.2892C49.3131 34.4278 50.0097 33.63 50.8924 33.5635" fill="#2F2E41"/>
</g>
<defs>
<clipPath id="clip0_179_681">
<rect width="124" height="109" fill="white"/>
</clipPath>
</defs>
</svg>
