<svg width="287" height="218" viewBox="0 0 287 218" fill="none" xmlns="http://www.w3.org/2000/svg">
<defs>
<linearGradient id="paint0_linear_174_440" x1="150.834" y1="199.858" x2="150.834" y2="6.22757" gradientUnits="userSpaceOnUse">
<stop stop-color="#808080" stop-opacity="0.25"/>
<stop offset="0.54" stop-color="#808080" stop-opacity="0.12"/>
<stop offset="1" stop-color="#808080" stop-opacity="0.1"/>
</linearGradient>
<clipPath id="clip0_174_440">
<rect width="287" height="218" fill="white"/>
</clipPath>
</defs>
<g clip-path="url(#clip0_174_440)">
<path opacity="0.1" d="M68.1783 181.925C65.7619 181.681 63.2374 181.419 60.9489 182.059C58.6604 182.699 56.7642 184.567 57.4436 186.353C58.9617 190.334 67.8713 187.562 71.9793 190.283C73.4462 191.255 74.0176 192.785 75.1633 193.98C77.0168 195.919 80.2037 196.823 83.2797 197.321C101.758 200.31 122.824 192.618 139.02 200.025C144.265 202.425 148.402 206.244 154.153 207.845C161.772 209.967 170.115 207.7 177.999 206.247C187.83 204.45 197.852 203.924 207.818 204.683C215.189 205.252 224.994 205.442 227.354 200.088C228.872 196.644 225.66 192.811 221.395 191.182C217.131 189.552 212.139 189.603 207.377 189.76C198.186 190.09 188.992 190.755 179.801 190.431C162.027 189.8 145.237 182.753 127.93 182.52C107.774 182.275 88.4282 183.967 68.1783 181.925Z" fill="#6C63FF"/>
<path opacity="0.1" d="M49.4909 92.7912C46.648 95.6662 46.4746 100.074 46.4746 100.074C46.4746 100.074 50.8782 99.8236 53.7097 96.9458C56.5412 94.068 56.7289 89.6632 56.7289 89.6632C56.7289 89.6632 52.3224 89.922 49.4909 92.7912Z" fill="#6C63FF"/>
<path opacity="0.1" d="M60.9347 21.7682C61.9382 25.6782 65.6197 28.1095 65.6197 28.1095C65.6197 28.1095 67.6751 24.2052 66.6716 20.2952C65.6681 16.3851 61.9865 13.9567 61.9865 13.9567C61.9865 13.9567 59.9198 17.861 60.9347 21.7682Z" fill="#6C63FF"/>
<path opacity="0.1" d="M227.198 32.5228C224.355 35.3978 224.179 39.8054 224.179 39.8054C224.179 39.8054 228.585 39.5552 231.417 36.6774C234.248 33.7996 234.433 29.392 234.433 29.392C234.433 29.392 230.029 29.6621 227.198 32.5228Z" fill="#6C63FF"/>
<path opacity="0.1" d="M140.55 72.8117C140.22 76.8326 142.901 80.336 142.901 80.336C142.901 80.336 146.122 77.3189 146.451 73.2951C146.781 69.2713 144.1 65.7765 144.1 65.7765C144.1 65.7765 140.879 68.7879 140.55 72.8117Z" fill="#6C63FF"/>
<path opacity="0.1" d="M233.812 129.204C233.483 133.225 236.163 136.728 236.163 136.728C236.163 136.728 239.384 133.711 239.714 129.69C240.044 125.67 237.363 122.166 237.363 122.166C237.363 122.166 234.142 125.183 233.812 129.204Z" fill="#6C63FF"/>
<path opacity="0.1" d="M166.748 27.4066C148.349 26.8521 130.826 21.7193 114.092 16.0889C97.3593 10.4584 80.7853 4.23368 62.8269 1.25353C51.2762 -0.663087 38.0654 -0.933233 28.7606 4.42705C19.8027 9.58259 16.9087 18.4861 15.3536 26.7469C14.1823 32.9603 13.4944 39.5006 16.7011 45.3188C18.9299 49.3596 22.8816 52.7549 25.6164 56.6223C35.1315 70.087 28.4053 86.6882 18.097 99.8458C13.2641 106.014 7.6494 111.894 3.9167 118.46C0.184002 125.026 -1.54163 132.545 1.72484 139.239C4.96004 145.876 12.6728 150.861 21.028 154.367C37.9971 161.476 57.9854 163.527 77.4904 164.681C120.654 167.24 164.045 166.131 207.322 165.022C223.339 164.613 239.424 164.198 255.179 162.053C263.929 160.865 272.961 158.977 279.315 154.415C287.377 148.626 289.376 138.824 283.972 131.564C274.909 119.39 249.857 116.365 243.515 103.298C240.029 96.1064 243.608 88.0958 248.677 81.4246C259.548 67.1153 277.768 54.5606 278.727 38.2011C279.386 26.9687 270.627 15.7192 257.084 10.4044C242.889 4.83085 223.202 5.53323 212.735 14.7552C201.946 24.2388 182.995 27.8929 166.748 27.4066Z" fill="#6C63FF"/>
<path d="M227.74 80.9388C227.348 81.039 226.986 81.2307 226.682 81.4981C226.379 81.7655 226.143 82.1011 225.994 82.4773L225.71 82.4318L224.65 82.2611C224.65 82.2611 219.032 81.7976 217.983 81.8687C216.934 81.9398 216.277 80.9047 216.277 80.9047L212.101 77.3701L211.777 77.0857C212.229 76.9151 212.511 76.8269 212.511 76.8269C212.511 76.8269 201.304 62.893 198.888 62.6229C196.471 62.3527 192.477 59.0996 192.437 59.0683L192.394 58.8465C192.306 58.3773 192.241 57.9024 192.193 57.4247L192.787 57.7887C192.787 57.6237 192.787 57.4588 192.804 57.2939C192.892 55.5742 193.473 53.9162 194.475 52.5165C195.644 50.8957 197.372 49.6217 198.063 47.7534C198.338 46.95 198.463 46.1025 198.43 45.2539C198.447 43.725 198.044 42.2208 197.264 40.9059C196.867 40.2486 196.334 39.6832 195.702 39.2469C195.07 38.8106 194.352 38.5135 193.597 38.3751C193.199 38.3125 192.792 38.304 192.4 38.213C190.066 37.6641 189.208 34.5333 186.939 33.7655C185.881 33.4072 184.704 33.6432 183.684 34.0868C182.663 34.5304 181.739 35.1674 180.741 35.6594C179.744 36.1513 178.612 36.5125 177.705 37.2092C177.611 37.2803 177.512 37.3656 177.421 37.4537L177.242 37.6272C176.868 38.0072 176.542 38.4323 176.272 38.8926L176.23 38.9637C176.201 39.012 176.176 39.0632 176.15 39.1144C176.125 39.1656 176.108 39.194 176.09 39.2338C176.073 39.2737 176.045 39.3248 176.025 39.3703L175.965 39.5068L175.914 39.6376C175.897 39.686 175.877 39.7343 175.863 39.7855C175.849 39.8367 175.835 39.868 175.823 39.9106L175.781 40.0613L175.755 40.1836C175.755 40.2348 175.735 40.2888 175.727 40.34C175.718 40.3912 175.727 40.4168 175.727 40.4538C175.727 40.4907 175.727 40.5618 175.727 40.6159C175.727 40.6699 175.727 40.687 175.727 40.7211C175.727 40.7552 175.727 40.8348 175.727 40.8945C175.727 40.9543 175.727 40.9514 175.727 40.9798C175.738 41.0634 175.755 41.1461 175.778 41.2272C175.931 41.7505 176.46 42.2851 176.864 42.7514C176.818 42.7941 176.773 42.8339 176.727 42.8794C175.768 43.8044 175.004 44.9136 174.483 46.1404C173.962 47.3673 173.694 48.6868 173.694 50.0198C173.694 50.6121 173.749 51.2032 173.856 51.7857C173.339 51.3953 172.784 51.059 172.199 50.7819C170.273 49.8586 168.168 49.3731 166.032 49.3601C162.55 49.3203 157.657 48.0122 157.657 48.0122C157.782 48.2509 157.878 48.504 157.942 48.7658C157.728 48.6435 157.498 48.5127 157.245 48.3762C155.205 47.2808 152.994 46.5404 150.706 46.1866C150.706 46.1866 149.257 46.3885 149.063 43.3429C148.997 42.3913 148.825 41.45 148.552 40.5362C147.719 37.7509 147.143 34.8954 146.829 32.0053L146.343 27.5351C146.343 27.5351 148.532 15.8761 147.215 10.9054C147.639 9.34706 147.4 7.91955 146.004 6.89299C140.498 2.83794 134.943 18.6202 134.943 18.6202L132.879 20.625C132.349 20.2798 131.752 20.052 131.128 19.9567C131.128 19.9567 130.016 21.0942 129.243 24.1995C128.833 25.8459 126.036 28.5957 123.506 30.8109C121.709 32.3835 119.975 34.0186 118.244 35.6594C116.964 36.8765 114.113 38.6168 107.893 39.6007C106.918 39.7542 106.031 39.8993 105.22 40.0329C105.427 39.2982 105.533 38.5384 105.533 37.775C105.523 35.8536 104.861 33.9925 103.654 32.4976C102.447 31.0026 100.768 29.9626 98.8921 29.5484C98.9205 29.3494 98.9205 29.1473 98.8921 28.9484C98.7872 28.5202 98.5704 28.1276 98.2638 27.8109C96.9533 26.19 95.5318 24.5236 93.5816 23.7558C92.7774 23.443 91.916 23.3044 91.0543 23.3492H90.6222C90.534 23.3492 90.4488 23.3492 90.3606 23.3492C89.4411 23.4001 88.543 23.6466 87.7263 24.0723C86.9096 24.4979 86.193 25.0929 85.6244 25.8175C84.925 26.7531 84.5043 27.8621 83.9016 28.8602C82.7815 30.7086 81.0587 32.1332 79.191 33.2593C78.068 33.939 76.8882 34.5248 75.8278 35.2954C71.9814 38.0907 70.2075 43.2576 71.174 47.8757C71.6005 49.9032 72.5017 51.8995 72.26 53.9554C72.0695 55.5507 71.211 56.9839 70.3354 58.3375C69.4598 59.6911 68.533 61.0674 68.1862 62.6343C67.8393 64.2011 68.2032 66.0466 69.5166 66.9964C69.9999 67.3433 70.5856 67.5651 70.9978 67.986C71.272 68.3103 71.5015 68.6699 71.6801 69.0552C72.3775 70.3155 73.3234 71.4209 74.4605 72.3047C75.5976 73.1884 76.9023 73.8321 78.2955 74.1965C78.7373 74.3094 79.1929 74.3592 79.6487 74.3444H79.697H79.7851C80.8285 74.4098 81.8974 74.1311 82.2471 73.207C82.3001 72.9969 82.3794 72.7944 82.483 72.6041C82.5812 72.4622 82.7278 72.3611 82.8952 72.3197C83.2316 72.3966 83.5558 72.5191 83.859 72.6837C85.3153 73.4393 86.9085 73.8947 88.544 74.0231C88.8173 74.0449 89.0917 74.0496 89.3656 74.0373C89.9348 74.0906 90.5085 74.0087 91.0401 73.7984C91.5513 73.5389 91.9929 73.1605 92.3279 72.6951C92.4018 72.6013 92.47 72.5017 92.5411 72.4107C92.1655 74.6818 91.4586 76.8854 90.4431 78.9511C90.4431 78.9511 88.7373 81.7948 88.8596 84.6612C88.7939 85.7055 89.0151 86.7479 89.4992 87.6755C89.4992 87.6755 89.5476 87.5503 89.6471 87.3541C90.136 88.1731 91.7394 90.7921 92.7913 91.7106C92.8425 94.4149 92.8311 97.8017 92.4928 98.4984C91.9242 99.6899 90.1275 108.167 97.8545 113.948L99.6369 117.852L92.2995 118.373C91.5575 118.27 81.9628 116.979 81.9144 118.859C81.8661 120.813 83.3643 139.837 88.3393 138.548C92.9761 137.348 91.4466 131.8 91.2163 131.055L91.3812 131.01L91.1993 130.959L94.9092 127.441C94.9792 127.013 94.877 126.574 94.6249 126.221L94.6619 126.201L103.623 126.602L105.729 131.18C105.729 131.18 109.303 136.618 106.406 141.193C103.509 145.768 100.513 152.923 100.029 157.262C99.6341 160.811 97.0073 164.298 96.0663 165.447C94.3861 166.015 87.9413 168.546 90.5141 172.376C93.4594 176.761 103.023 185.108 106.889 184.82C110.755 184.533 109.206 181.721 109.206 181.721L105.974 178.587C105.974 178.587 105.405 171.91 105.635 169.957C105.761 168.941 105.013 168.211 104.214 167.901C104.518 165.725 105.289 161.602 106.943 159.324C109.26 156.128 116.7 142.063 116.7 142.063C116.7 142.063 119.065 139.965 118.534 133.72C118.32 131.2 118.201 128.988 118.133 127.239L126.553 127.617C126.553 127.617 135.585 126.71 129.45 117.03C123.315 107.351 110.275 97.8643 110.275 97.8643L110.158 91.8727C110.75 92.0206 111.097 92.0945 111.097 92.0945C111.097 92.0945 111.045 91.8784 110.96 91.4916L111.097 91.5229C111.097 91.5229 109.212 83.3645 108.632 76.8781L109.163 77.1227C114.767 83.609 118.545 78.1265 118.545 78.1265C118.545 78.1265 130.38 61.4854 129.22 62.2475C129.1 62.3071 128.969 62.342 128.835 62.3503C128.702 62.3586 128.568 62.3401 128.441 62.2959L129.294 59.5773C129.294 59.5773 132.788 54.237 127.716 51.2341C123.577 48.7828 123.685 56.4664 123.864 59.3697L123.659 59.1963C123.659 59.1963 119.699 65.1679 117.573 68.495C115.446 71.8221 113.661 69.6325 113.661 69.6325L110.974 66.604C111.416 65.3907 111.632 64.1072 111.614 62.8162C111.673 61.9156 111.541 61.0126 111.228 60.166C110.915 59.3195 110.428 58.5482 109.797 57.9024C107.748 55.8123 107.148 53.7877 107.085 52.2293C107.105 51.422 107.288 50.627 107.623 49.8919L121.584 42.4984C121.584 42.4984 124.529 42.5439 128.489 36.4414C131.056 32.5384 133.88 28.8116 136.944 25.2857C136.944 25.2857 136.862 25.1663 136.719 24.9701C136.862 24.8023 136.944 24.7113 136.944 24.7113C136.944 24.7113 136.782 24.4753 136.506 24.1113L138.658 21.6288C138.59 22.7508 138.582 23.8756 138.633 24.9985L139.747 28.7664L140.373 49.744C140.373 49.744 139.696 51.7345 144.046 53.7507C147.724 55.4569 153.552 58.3005 155.252 59.1394C155.19 59.293 155.153 59.3754 155.153 59.3754L155.659 59.3413L155.733 59.3754C164.23 58.6133 163.94 67.0988 163.94 67.0988C163.94 67.0988 164.509 84.3598 161.913 90.3684C159.318 96.377 159.69 103.813 159.69 103.813C159.69 103.813 159.949 102.545 161.396 104.203C161.367 104.348 161.336 104.504 161.302 104.666C160.472 108.827 158.743 117.676 158.422 121.265C158.068 124.535 157.438 127.769 156.537 130.933L155.684 146.809L161.117 147.074L161.057 147.642C161.028 147.931 160.928 148.207 160.768 148.449C160.607 148.69 160.391 148.888 160.136 149.027C158.277 150.037 153.882 153.577 154.234 164.502L154.047 166.26C153.746 169.236 152.844 172.12 151.394 174.737C151.269 174.959 151.158 175.172 151.065 175.377C151.079 175.262 151.131 175.155 151.212 175.072C151.212 175.072 148.389 175.658 148.969 183.288C149.549 190.917 150.419 192.251 151.579 192.345C152.739 192.438 158.402 193.823 158.098 191.011C157.794 188.199 157.529 181.951 157.905 180.998C158.28 180.046 159.821 177.475 158.359 176.855C158.783 175.105 158.988 173.31 158.971 171.509C158.971 171.509 161.814 167.028 163.846 165.358C165.879 163.689 166.973 160.854 167.71 157.206C167.761 156.967 173.7 153.008 172.827 149.721C172.673 149.152 172.562 148.649 172.477 148.194C172.44 147.992 172.409 147.802 172.381 147.625H172.486L173.694 140.377V147.435L174.41 147.529L174.385 148.097L174.081 154.865C174.025 156.183 173.737 157.481 173.228 158.699C171.948 161.727 169.589 168.469 170.231 175.76L170.163 182.261C169.958 182.301 167.007 182.998 167.568 190.365C168.136 197.992 169.015 199.329 170.174 199.422C171.334 199.516 176.997 200.901 176.696 198.089C176.395 195.276 176.127 189.029 176.503 188.076C176.878 187.124 177.555 184.604 176.093 183.984C176.101 183.13 176.309 182.289 176.702 181.53C177.339 180.447 179.465 175.297 181.066 171.336C182.702 167.327 183.612 163.058 183.752 158.73C183.752 158.681 183.752 158.633 183.752 158.585C183.795 157.125 184.108 155.685 184.676 154.339C185.33 152.833 185.848 151.271 186.223 149.673C186.262 149.482 186.294 149.297 186.322 149.104L187.709 149.289L192.446 128.786C192.446 128.786 193.742 117.673 193.108 112.654C193.082 112.447 193.054 112.256 193.02 112.071L193.304 112.097C193.304 112.097 194.271 109.62 193.981 99.033C193.691 88.4461 195.914 85.0991 195.914 85.0991C197.114 81.2943 198.438 80.0203 199.212 79.5938C199.411 79.4669 199.639 79.3925 199.874 79.3777L203.459 83.4811L204.118 84.2375C204.12 84.2224 204.12 84.2071 204.118 84.192L204.403 84.5247C204.381 84.3559 204.373 84.1857 204.38 84.0157C206.293 85.1275 210.714 87.7266 213.352 89.5921C216.792 92.0234 217.736 91.739 220.744 91.4859C222.569 91.3352 225.036 90.3115 226.691 89.5324L226.842 89.4613C227.287 89.699 227.756 89.8896 228.24 90.03C228.24 90.03 233.096 94.1448 233.565 86.6347C234.034 79.1246 227.74 80.9388 227.74 80.9388ZM101.8 168.398C101.306 168.251 100.829 168.05 100.379 167.798L101.8 168.398ZM94.1985 87.1039L94.2156 88.1702L94.1417 88.2044C94.1644 87.829 94.1815 87.4593 94.1985 87.1039ZM170.143 182.287V182.702C170.091 182.645 170.061 182.571 170.061 182.494C170.061 182.417 170.091 182.343 170.143 182.287Z" fill="url(#paint0_linear_174_440)"/>
<path d="M185.643 57.3365H177.398V66.0097H185.643V57.3365Z" fill="#FF7590"/>
<path d="M167.38 157.481C166.655 161.107 165.581 163.925 163.591 165.586C161.601 167.247 158.806 171.7 158.806 171.7C158.758 177.623 157.194 179.423 157.194 179.423L155.582 179.85H151.602C151.602 179.85 150.892 177.859 150.75 176.676C150.701 176.281 150.983 175.618 151.375 174.907C152.798 172.301 153.682 169.436 153.976 166.482L154.161 164.733C153.826 153.879 158.141 150.355 159.952 149.351C160.202 149.212 160.415 149.014 160.572 148.774C160.729 148.534 160.825 148.26 160.853 147.975L161.174 144.873L171.881 145.399C171.881 145.399 171.653 146.343 172.06 148.527C172.142 148.979 172.253 149.482 172.401 150.042C173.254 153.31 167.426 157.243 167.38 157.481Z" fill="#8E5362"/>
<path d="M185.535 149.985C185.168 151.573 184.661 153.125 184.02 154.623C183.462 155.963 183.154 157.393 183.11 158.843C183.11 158.892 183.11 158.94 183.11 158.988C182.972 163.287 182.08 167.528 180.475 171.518C178.903 175.453 176.819 180.575 176.194 181.652C175.153 183.452 175.767 186.487 175.767 186.487L169.74 186.06L169.845 175.917C169.217 168.674 171.531 161.983 172.785 158.96C173.291 157.751 173.58 156.462 173.638 155.152L173.922 148.424L174.01 146.434C174.01 146.434 184.665 144.918 185.564 147.335C185.811 147.975 185.751 148.928 185.535 149.985Z" fill="#8E5362"/>
<path opacity="0.1" d="M172.06 148.527L160.842 147.975L161.163 144.873L171.881 145.399C171.881 145.399 171.645 146.34 172.06 148.527Z" fill="black"/>
<path opacity="0.1" d="M185.535 149.986L173.919 148.424L174.007 146.434C174.007 146.434 184.662 144.918 185.56 147.335C185.811 147.975 185.751 148.928 185.535 149.986Z" fill="black"/>
<path d="M191.638 129.233L186.996 149.613L173.256 147.765V140.749L172.068 147.958L155.579 147.15L156.432 131.368C157.316 128.219 157.934 125.001 158.28 121.748C158.601 118.182 160.29 109.387 161.106 105.255C161.39 103.893 161.549 103.034 161.549 103.034C161.549 103.034 189.79 108.909 191.638 111.042C191.954 111.406 192.161 112.179 192.289 113.206C192.909 118.188 191.638 129.233 191.638 129.233Z" fill="#BDD2E8"/>
<path opacity="0.1" d="M158.661 130.561C158.661 130.561 169.777 124.731 172.486 125.962L158.661 130.561Z" fill="black"/>
<path opacity="0.1" d="M164.726 111.508C164.726 111.508 173.965 118.523 174.249 120.417L164.726 111.508Z" fill="black"/>
<path opacity="0.1" d="M162.215 135.679C162.215 135.679 168.896 135.395 171.028 137.101L162.215 135.679Z" fill="black"/>
<path opacity="0.1" d="M174.249 128.178C174.249 128.178 177.424 138.574 176.048 141.418C174.673 144.261 173.254 140.752 173.254 140.752L174.249 128.178Z" fill="black"/>
<path d="M169.788 182.366C169.788 182.366 166.661 182.841 167.229 190.422C167.798 198.003 168.651 199.334 169.788 199.428C170.925 199.522 176.469 200.898 176.184 198.1C175.9 195.302 175.616 189.097 175.994 188.147C176.372 187.198 177.026 184.698 175.593 184.081L175.283 185.543C175.283 185.543 172.25 182.744 170.45 184.783C170.373 184.286 170.248 183.798 170.078 183.325C169.899 182.881 169.506 182.651 169.788 182.366Z" fill="#494457"/>
<path d="M227.018 89.3276C227.018 89.3276 226.302 89.7285 225.25 90.229C223.627 91.0025 221.208 92.0205 219.417 92.1712C216.466 92.4215 215.542 92.7058 212.167 90.2887C209.577 88.4347 205.242 85.8498 203.354 84.7465L202.533 84.2602L202.45 84.2119V84.1777L204.017 79.8724L209.56 76.9236L210.936 78.1037L215.033 81.6156C215.033 81.6156 215.672 82.645 216.704 82.5739C217.736 82.5028 223.243 82.9635 223.243 82.9635L224.284 83.1341L226.475 83.4981L227.018 89.3276Z" fill="#8E5362"/>
<path opacity="0.1" d="M227.018 89.3276C227.018 89.3276 226.302 89.7286 225.25 90.2291C224.138 89.6603 222.757 88.594 223.288 86.8394C223.769 85.2612 223.9 84.0299 224.295 83.1427L226.487 83.5067L227.018 89.3276Z" fill="black"/>
<path d="M226.274 81.6498C226.274 81.6498 232.457 79.8725 231.996 87.3371C231.536 94.8017 226.771 90.7154 226.771 90.7154C226.771 90.7154 222.72 89.649 223.573 86.8395C224.426 84.0299 224.179 82.3266 226.274 81.6498Z" fill="#8E5362"/>
<path d="M162.166 57.4787L155.725 60.1859L155.625 60.2285L155.554 60.1944L155.153 59.9925C153.487 59.1621 147.762 56.3213 144.16 54.6351C139.895 52.6445 140.558 50.6539 140.558 50.6539L139.944 29.8014L138.852 26.0564C138.852 26.0564 138.082 13.3623 144.254 10.1802C150.425 6.9982 146.434 28.5673 146.434 28.5673L146.912 33.0489C147.22 35.9158 147.786 38.7491 148.603 41.5144C148.87 42.4236 149.038 43.3589 149.103 44.3041C149.294 47.3354 150.715 47.1335 150.715 47.1335C152.961 47.4861 155.128 48.223 157.123 49.3117C157.864 49.703 158.573 50.1518 159.244 50.6539L162.166 57.4787Z" fill="#8E5362"/>
<path d="M185.1 67.4315L179.602 66.8628C179.602 66.8628 181.222 64.4513 181.936 62.1053C182.036 61.7837 182.117 61.456 182.177 61.1243C182.342 60.1944 182.299 59.3328 181.876 58.71C180.267 56.3412 191.448 53.0227 191.448 53.0227C191.312 54.3337 191.271 55.6528 191.326 56.9697C191.358 57.8861 191.452 58.7991 191.61 59.7025C191.948 61.5423 192.622 63.2741 193.907 64.1613C197.418 66.5784 185.1 67.4315 185.1 67.4315Z" fill="#8E5362"/>
<path opacity="0.1" d="M185.1 67.4316L179.602 66.8628C179.602 66.8628 181.222 64.4514 181.936 62.1054C182.57 63.0068 182.788 62.9869 183.678 63.1661C183.678 63.1661 189.228 63.9879 191.616 59.7025C191.954 61.5424 192.628 63.2741 193.913 64.1614C197.418 66.5785 185.1 67.4316 185.1 67.4316Z" fill="black"/>
<path opacity="0.1" d="M203.365 84.7465C203.359 84.9155 203.366 85.0848 203.388 85.2526L202.535 84.2602L202.464 84.1777L204.03 79.8725L209.574 76.9236L210.95 78.1037C208.98 78.8573 203.453 81.2488 203.365 84.7465Z" fill="black"/>
<path opacity="0.1" d="M162.167 57.4787L155.725 60.1859H155.554L155.057 60.22C155.057 60.22 155.094 60.1375 155.153 59.984C155.691 58.6787 158.184 52.3061 157.106 49.3032C157.847 49.6945 158.556 50.1433 159.227 50.6454L162.167 57.4787Z" fill="black"/>
<path opacity="0.1" d="M192.289 113.197C189.782 112.973 164.696 110.652 162.356 106.958C161.987 106.356 161.568 105.786 161.105 105.252C161.39 103.89 161.549 103.031 161.549 103.031C161.549 103.031 189.79 108.906 191.638 111.039C191.954 111.397 192.161 112.168 192.289 113.197Z" fill="black"/>
<path d="M183.679 63.4504C183.679 63.4504 189.288 64.2807 191.659 59.9214C191.659 59.9214 195.619 63.1745 197.987 63.4532C200.355 63.7319 211.348 77.5748 211.348 77.5748C211.348 77.5748 202.535 80.4184 203.104 84.9683L198.934 80.1341C198.934 80.1341 196.85 80.0374 195.05 85.8214C195.05 85.8214 192.87 89.1371 193.154 99.6586C193.438 110.18 192.492 112.646 192.492 112.646C192.492 112.646 164.819 110.277 162.357 106.39C159.895 102.502 159.514 104.399 159.514 104.399C159.514 104.399 159.133 97.0055 161.692 91.0338C164.25 85.0621 163.682 67.9064 163.682 67.9064C163.682 67.9064 163.966 59.4693 155.628 60.2285C155.628 60.2285 159.133 52.0758 157.524 48.9478C157.524 48.9478 162.32 50.2501 165.737 50.29C167.835 50.3063 169.902 50.7921 171.787 51.7118C172.813 52.2151 173.76 52.8492 174.297 53.6057C175.906 55.8806 178.561 54.8398 178.561 54.8398C179.231 56.9215 180.058 58.9492 181.035 60.9053C181.146 61.1129 181.256 61.3176 181.37 61.5139C181.535 61.7982 181.706 62.0826 181.876 62.3158C182.559 63.2911 182.752 63.2655 183.679 63.4504Z" fill="#FF7590"/>
<path opacity="0.1" d="M191.326 56.9612C191.024 57.3905 190.687 57.7947 190.32 58.1697C189.395 59.1187 188.29 59.8729 187.069 60.3876C185.849 60.9024 184.537 61.1674 183.213 61.1669C182.87 61.1671 182.527 61.15 182.186 61.1157C182.351 60.1859 182.309 59.3242 181.885 58.7015C180.276 56.3327 191.457 53.0142 191.457 53.0142C191.318 54.3249 191.275 55.6441 191.326 56.9612Z" fill="black"/>
<path d="M193.154 50.9383C193.154 52.9068 192.571 54.8311 191.477 56.4678C190.384 58.1045 188.83 59.3802 187.012 60.1335C185.194 60.8868 183.193 61.0839 181.263 60.6999C179.333 60.3158 177.56 59.3679 176.168 57.976C174.777 56.5841 173.829 54.8107 173.445 52.88C173.061 50.9494 173.258 48.9482 174.011 47.1296C174.764 45.3109 176.04 43.7565 177.676 42.6629C179.312 41.5693 181.236 40.9855 183.204 40.9855C184.512 40.9807 185.808 41.2348 187.018 41.7332C188.227 42.2316 189.326 42.9646 190.251 43.8897C191.176 44.8149 191.908 45.914 192.407 47.1238C192.905 48.3335 193.159 49.6299 193.154 50.9383Z" fill="#8E5362"/>
<path opacity="0.1" d="M198.084 73.6875L198.289 80.3473C198.289 80.3473 201.259 77.953 201.353 75.6781C201.447 73.4032 198.084 73.6875 198.084 73.6875Z" fill="black"/>
<path opacity="0.1" d="M174.106 80.3474C174.106 80.3474 181.924 91.0822 186.473 92.1713C191.022 93.2604 175.812 83.828 174.106 80.3474Z" fill="black"/>
<path opacity="0.1" d="M182.399 81.465C182.399 81.465 186.758 86.3902 189.885 87.0044L182.399 81.465Z" fill="black"/>
<path opacity="0.1" d="M167.048 93.8774C167.048 93.8774 175.008 101.697 179.557 102.172L167.048 93.8774Z" fill="black"/>
<path opacity="0.1" d="M193.154 50.9384C193.155 53.5402 192.134 56.0383 190.311 57.894L189.219 57.2143C188.797 56.9944 188.432 56.6777 188.156 56.2901C187.795 55.6873 187.9 54.9309 187.928 54.2285C187.988 52.7413 187.579 51.1318 186.416 50.2019C184.531 48.6919 181.509 49.5279 179.593 48.0464C179.132 47.6545 178.725 47.202 178.385 46.7013L176.588 44.2928C176.48 44.1506 176.349 44.0084 176.21 43.8406C177.609 42.4647 179.383 41.5331 181.31 41.163C183.237 40.7929 185.23 41.0008 187.039 41.7605C188.847 42.5202 190.391 43.7979 191.476 45.4329C192.561 47.068 193.139 48.9873 193.136 50.9498L193.154 50.9384Z" fill="black"/>
<path d="M177.208 38.1931C178.098 37.5134 179.184 37.1551 180.185 36.6547C181.185 36.1542 182.069 35.5172 183.07 35.0906C184.071 34.6641 185.228 34.4139 186.265 34.7693C188.491 35.5343 189.333 38.6452 191.621 39.1912C192.008 39.2822 192.406 39.2907 192.796 39.3504C193.539 39.4914 194.244 39.7886 194.864 40.2225C195.484 40.6563 196.005 41.2169 196.392 41.8671C197.156 43.1791 197.549 44.6741 197.529 46.1923C197.561 47.0348 197.438 47.8761 197.168 48.6748C196.491 50.5317 194.794 51.8028 193.648 53.4094C192.564 54.947 191.988 56.7857 192.002 58.6674L189.228 56.9413C188.805 56.7223 188.44 56.4054 188.164 56.0171C187.803 55.4142 187.909 54.6578 187.937 53.9554C187.997 52.4682 187.587 50.8587 186.427 49.9288C184.54 48.4188 181.518 49.2549 179.605 47.7733C179.143 47.3814 178.737 46.929 178.396 46.4283L176.6 44.0197C176.21 43.4965 175.462 42.8453 175.292 42.2083C174.914 40.8377 176.207 38.9637 177.208 38.1931Z" fill="#362133"/>
<path opacity="0.1" d="M189.538 56.62C189.115 56.401 188.751 56.0841 188.475 55.6958C188.114 55.0929 188.219 54.3365 188.247 53.6341C188.307 52.1469 187.898 50.5374 186.735 49.6075C184.85 48.0976 181.828 48.9336 179.912 47.452C179.451 47.0601 179.044 46.6077 178.704 46.107L176.907 43.6984C176.515 43.1752 175.77 42.524 175.599 41.887C175.289 40.7894 176.074 39.359 176.913 38.4434C175.972 39.3135 174.94 40.9657 175.289 42.197C175.471 42.834 176.208 43.4851 176.597 44.0084L178.394 46.417C178.734 46.9176 179.141 47.3701 179.602 47.762C181.51 49.2435 184.532 48.4075 186.425 49.9175C187.585 50.8474 187.994 52.4569 187.935 53.9441C187.906 54.6465 187.801 55.4029 188.162 56.0057C188.438 56.3941 188.802 56.7109 189.225 56.9299L192 58.656C192 58.4911 192 58.3262 192.017 58.1641L189.538 56.62Z" fill="black"/>
<path d="M151.196 175.24C151.196 175.24 148.427 175.809 148.996 183.404C149.564 191 150.417 192.316 151.554 192.41C152.692 192.504 158.235 193.88 157.951 191.082C157.667 188.284 157.382 182.079 157.761 181.129C158.139 180.179 159.64 177.629 158.207 177.012L157.05 178.524C157.05 178.524 154.016 175.726 152.217 177.765C152.217 177.765 150.534 175.903 151.196 175.24Z" fill="#494457"/>
<path opacity="0.1" d="M152.947 179.949C153.547 180.233 154.107 180.58 154.704 180.865C155.292 181.173 155.948 181.327 156.612 181.314C156.893 181.309 157.166 181.214 157.391 181.044" fill="black"/>
<path opacity="0.1" d="M171.17 187.377C171.525 187.704 171.801 188.122 172.202 188.392C172.77 188.773 173.498 188.796 174.192 188.804C174.307 188.815 174.424 188.8 174.533 188.762C174.657 188.694 174.762 188.596 174.837 188.477L175.21 187.997" fill="black"/>
<path d="M124.452 61.2693C124.452 61.2693 123.173 49.1383 128.148 52.1241C133.123 55.1099 129.697 60.4162 129.697 60.4162L128.529 64.1613L124.452 61.2693Z" fill="#FFC1C7"/>
<path d="M132.413 22.5018L135.256 19.7093C135.256 19.7093 140.706 4.02087 146.107 8.05032C151.509 12.0798 139.262 22.2686 139.262 22.2686L136.015 26.0592L132.413 22.5018Z" fill="#FFC1C7"/>
<path d="M90.8101 84.5446L90.668 87.7665C90.668 87.7665 93.2749 92.3163 94.3637 92.649C95.4525 92.9817 95.3587 83.0261 95.3587 83.0261L90.8101 84.5446Z" fill="#FF5374"/>
<path opacity="0.1" d="M90.8101 84.5446L90.668 87.7665C90.668 87.7665 93.2749 92.3163 94.3637 92.649C95.4525 92.9817 95.3587 83.0261 95.3587 83.0261L90.8101 84.5446Z" fill="black"/>
<path d="M95.168 81.0071L95.3613 92.8822H108.578L107.583 85.9636L95.168 81.0071Z" fill="#FFC1C7"/>
<path d="M98.2491 110.655L98.8661 114.446L106.59 131.604C106.59 131.604 110.095 137.007 107.253 141.557C104.41 146.107 101.473 153.216 100.998 157.527C100.523 161.838 96.7822 166.058 96.7822 166.058L104.933 169.519C104.933 169.519 105.501 162.742 107.776 159.566C110.05 156.389 117.345 142.41 117.345 142.41C117.345 142.41 119.667 140.323 119.147 134.115C118.627 127.907 118.672 123.545 118.672 123.545L117.868 113.641L98.2491 110.655Z" fill="#575988"/>
<path opacity="0.1" d="M98.2491 110.655L98.8661 114.446L106.59 131.604C106.59 131.604 110.095 137.007 107.253 141.557C104.41 146.107 101.473 153.216 100.998 157.527C100.523 161.838 96.7822 166.058 96.7822 166.058L104.933 169.519C104.933 169.519 105.501 162.742 107.776 159.566C110.05 156.389 117.345 142.41 117.345 142.41C117.345 142.41 119.667 140.323 119.147 134.115C118.627 127.907 118.672 123.545 118.672 123.545L117.868 113.641L98.2491 110.655Z" fill="black"/>
<path d="M97.4906 165.537C97.4906 165.537 88.7715 168.191 91.6627 172.553C94.5539 176.915 103.935 185.207 107.725 184.923C111.515 184.638 109.999 181.84 109.999 181.84L106.824 178.712C106.824 178.712 106.255 172.078 106.494 170.136C106.733 168.193 103.793 167.292 103.412 168.429C103.031 169.567 97.4906 165.537 97.4906 165.537Z" fill="#C4747B"/>
<path d="M102.986 87.8375L96.0753 88.6025C95.4578 88.6707 94.8884 88.9683 94.4799 89.4365C94.0713 89.9047 93.8534 90.5092 93.8693 91.1305C93.9432 93.8945 93.9915 98.2908 93.6049 99.0927C93.0363 100.279 91.2851 108.716 98.8642 114.448L109.147 117.719L92.6582 118.904L93.1813 128.052L95.7399 126.631L127.012 128.052C127.012 128.052 135.873 127.151 129.854 117.531C123.836 107.911 111.046 98.4785 111.046 98.4785L110.904 90.9883L109.954 88.8101L102.986 87.8375Z" fill="#575988"/>
<path opacity="0.1" d="M111.563 117.574C112.684 117.084 113.894 116.831 115.117 116.831C116.34 116.831 117.55 117.084 118.671 117.574H111.563Z" fill="black"/>
<path d="M93.465 118.853C93.465 118.853 83.279 117.386 83.2306 119.328C83.1823 121.27 84.6521 140.181 89.5333 138.901C94.4145 137.621 92.3279 131.365 92.3279 131.365L95.9781 127.859C95.9781 127.859 96.3562 125.917 93.9398 126.105L93.465 118.853Z" fill="#C4747B"/>
<path d="M110.333 65.8191L114.358 70.4173C114.358 70.4173 116.112 72.5984 118.196 69.2798C120.28 65.9613 124.166 60.038 124.166 60.038C124.166 60.038 128.479 63.8285 129.616 63.0721C130.753 62.3157 119.146 78.8573 119.146 78.8573C119.146 78.8573 115.45 84.3057 109.952 77.862L108.343 77.1027L110.333 65.8191Z" fill="#FF5374"/>
<path opacity="0.1" d="M110.333 65.8191L114.358 70.4173C114.358 70.4173 116.112 72.5984 118.196 69.2798C120.28 65.9613 124.166 60.038 124.166 60.038C124.166 60.038 128.479 63.8285 129.616 63.0721C130.753 62.3157 119.146 78.8573 119.146 78.8573C119.146 78.8573 115.45 84.3057 109.952 77.862L108.343 77.1027L110.333 65.8191Z" fill="black"/>
<path d="M98.0164 47.1335C102.648 47.1335 106.403 43.3777 106.403 38.7447C106.403 34.1117 102.648 30.356 98.0164 30.356C93.3846 30.356 89.6299 34.1117 89.6299 38.7447C89.6299 43.3777 93.3846 47.1335 98.0164 47.1335Z" fill="#FFC1C7"/>
<path opacity="0.1" d="M98.0143 43.2604C98.0143 43.2604 90.8076 46.6728 91.6605 52.6445C92.5134 58.6162 92.6555 66.1518 92.6555 66.1518C92.6555 66.1518 95.9276 70.986 91.5894 80.2279C91.5894 80.2279 88.8176 84.9199 90.6655 88.3323C90.6655 88.3323 92.7152 82.9294 98.0143 86.9105C103.313 90.8916 111.845 92.74 111.845 92.74C111.845 92.74 107.438 73.4031 110.139 70.7017C110.139 70.7017 114.83 63.7347 110.566 59.3271C106.301 54.9194 108.433 50.7961 108.433 50.7961L122.128 43.451C122.128 43.451 125.016 43.4965 128.902 37.431C131.418 33.5548 134.188 29.8499 137.195 26.3407C137.195 26.3407 134.255 21.933 131.509 21.6003C131.509 21.6003 130.417 22.7378 129.661 25.8203C129.258 27.4554 126.514 30.1882 124.032 32.392C122.27 33.956 120.57 35.5797 118.873 37.2262C117.616 38.4348 114.819 40.1637 108.718 41.1419C98.6767 42.7429 98.0143 43.2604 98.0143 43.2604Z" fill="black"/>
<path d="M98.0143 42.6917C98.0143 42.6917 90.8076 46.1041 91.6605 52.0758C92.5134 58.0474 92.6555 65.5831 92.6555 65.5831C92.6555 65.5831 95.9276 70.4173 91.5894 79.6592C91.5894 79.6592 88.8176 84.3512 90.6655 87.7636C90.6655 87.7636 92.7152 82.3606 98.0143 86.3418C103.313 90.3229 111.845 92.1712 111.845 92.1712C111.845 92.1712 107.438 72.8344 110.139 70.1329C110.139 70.1329 114.83 63.166 110.566 58.7583C106.301 54.3507 108.433 50.2274 108.433 50.2274L122.128 42.8822C122.128 42.8822 125.016 42.9277 128.902 36.8622C131.418 32.9861 134.188 29.2812 137.195 25.772C137.195 25.772 134.255 21.3643 131.509 21.0316C131.509 21.0316 130.417 22.1691 129.661 25.2516C129.258 26.8867 126.514 29.6194 124.032 31.8233C122.27 33.3873 120.57 35.011 118.873 36.6575C117.616 37.866 114.819 39.595 108.718 40.5732C98.6767 42.1742 98.0143 42.6917 98.0143 42.6917Z" fill="#FF5374"/>
<path opacity="0.1" d="M104.221 78.4279C104.221 78.4279 109.81 86.6744 109.952 88.0963C109.955 88.0963 109.102 79.2326 104.221 78.4279Z" fill="black"/>
<path opacity="0.1" d="M96.877 50.6539C96.877 50.6539 100.775 55.346 106.406 51.4132C104.85 51.9418 103.202 52.1472 101.563 52.0166C99.9248 51.8861 98.3301 51.4224 96.877 50.6539Z" fill="black"/>
<path opacity="0.1" d="M99.8987 29.9721C99.7965 29.546 99.5849 29.1539 99.2847 28.8347C97.9997 27.2223 96.6038 25.5673 94.6906 24.8024C93.4206 24.3278 92.0321 24.2721 90.7282 24.6436C89.4243 25.0151 88.2735 25.7942 87.4441 26.8669C86.7561 27.7939 86.3467 28.8972 85.7525 29.8897C84.6552 31.7267 82.958 33.1428 81.1329 34.2632C80.0327 34.9372 78.8728 35.5201 77.8351 36.285C74.0626 39.0633 72.3199 44.1989 73.2695 48.7971C73.6874 50.8104 74.5715 52.7953 74.3327 54.8399C74.1479 56.4266 73.3036 57.8484 72.4479 59.1963C71.5922 60.5442 70.6796 61.9092 70.3385 63.4618C69.9973 65.0144 70.3555 66.8543 71.6433 67.7955C72.1181 68.1425 72.6895 68.3643 73.096 68.7794C73.3651 69.1026 73.5898 69.4603 73.7641 69.843C74.4413 71.0926 75.3661 72.191 76.4821 73.0711C77.598 73.9512 78.8816 74.5944 80.2544 74.9615C81.4769 75.2829 83.1172 75.1663 83.5635 73.9833C83.6148 73.7744 83.6921 73.5728 83.7938 73.3833C84.1975 72.8146 85.0873 73.1331 85.7128 73.4601C87.1365 74.2046 88.6965 74.6525 90.2983 74.7767C90.9336 74.8605 91.5798 74.7833 92.1775 74.5521C92.6821 74.2957 93.1164 73.9199 93.4425 73.4573C94.9379 71.5093 95.3672 68.9643 95.623 66.5216C95.7908 64.932 95.9073 63.3139 95.6031 61.7443C95.1198 59.2248 93.5875 56.8702 93.815 54.3166C94.0566 51.5867 96.2712 49.3545 96.6095 46.6388C96.7815 45.2169 96.4265 43.7813 95.6117 42.6036C95.311 42.24 95.0561 41.8408 94.8526 41.415C94.7556 41.1997 94.7254 40.9601 94.7659 40.7274C94.8065 40.4947 94.9159 40.2796 95.08 40.1098C95.2601 39.9829 95.4599 39.8868 95.6714 39.8254C97.4993 39.123 98.4744 37.2917 98.6052 35.4177C98.6564 34.7068 98.6052 34.0528 98.8014 33.3589C99.1141 32.2869 100.061 31.1153 99.8987 29.9721Z" fill="black"/>
<path d="M99.3304 29.9721C99.2282 29.546 99.0165 29.1539 98.7163 28.8347C97.4313 27.2223 96.0355 25.5673 94.1222 24.8024C92.8522 24.3278 91.4637 24.2721 90.1598 24.6436C88.8559 25.0151 87.7051 25.7942 86.8757 26.8669C86.1877 27.7939 85.7783 28.8972 85.1842 29.8897C84.0868 31.7267 82.3896 33.1428 80.5645 34.2632C79.4643 34.9372 78.3044 35.5201 77.2668 36.285C73.4943 39.0633 71.7516 44.1989 72.7011 48.7971C73.119 50.8104 74.0031 52.7953 73.7643 54.8399C73.5796 56.4266 72.7352 57.8484 71.8795 59.1963C71.0238 60.5442 70.1112 61.9092 69.7701 63.4618C69.4289 65.0144 69.7871 66.8543 71.075 67.7955C71.5497 68.1425 72.1212 68.3643 72.5277 68.7794C72.7967 69.1026 73.0214 69.4603 73.1958 69.843C73.873 71.0926 74.7978 72.191 75.9137 73.0711C77.0296 73.9512 78.3132 74.5944 79.6861 74.9615C80.9085 75.2829 82.5488 75.1663 82.9952 73.9833C83.0464 73.7744 83.1238 73.5728 83.2254 73.3833C83.6291 72.8146 84.519 73.1331 85.1444 73.4601C86.5682 74.2046 88.1281 74.6525 89.7299 74.7767C90.3652 74.8605 91.0114 74.7833 91.6091 74.5521C92.1137 74.2957 92.548 73.9199 92.8742 73.4573C94.3695 71.5093 94.7988 68.9643 95.0547 66.5216C95.2224 64.932 95.3389 63.3139 95.0348 61.7443C94.5515 59.2248 93.0192 56.8702 93.2466 54.3166C93.4882 51.5867 95.7028 49.3545 96.0411 46.6388C96.2131 45.2169 95.8581 43.7813 95.0433 42.6036C94.7426 42.24 94.4877 41.8408 94.2842 41.415C94.1872 41.1997 94.157 40.9601 94.1976 40.7274C94.2381 40.4947 94.3475 40.2796 94.5117 40.1098C94.6917 39.9829 94.8915 39.8868 95.103 39.8254C96.931 39.123 97.9061 37.2917 98.0368 35.4177C98.088 34.7068 98.0368 34.0528 98.233 33.3589C98.5457 32.2869 99.4924 31.1153 99.3304 29.9721Z" fill="#BB7684"/>
<g opacity="0.1">
<path opacity="0.1" d="M82.3777 73.3691C82.2762 73.559 82.1979 73.7605 82.1446 73.9691C81.8802 74.6743 81.1894 74.9985 80.4189 75.0781C81.4907 75.1862 82.6364 74.9274 82.9974 73.9691C83.0508 73.7605 83.129 73.559 83.2305 73.3691C83.3021 73.2646 83.4002 73.1812 83.5148 73.1274C83.0827 73.0023 82.6392 73.008 82.3777 73.3691Z" fill="black"/>
<path opacity="0.1" d="M99.3437 29.9692C99.2443 29.542 99.0323 29.1492 98.7296 28.8318C97.4446 27.2194 96.0488 25.5644 94.1355 24.7995C93.304 24.4747 92.4103 24.3406 91.5201 24.4071C92.1245 24.4451 92.7192 24.5775 93.2827 24.7995C95.1959 25.5644 96.5918 27.2194 97.8768 28.8318C98.1794 29.1492 98.3914 29.542 98.4908 29.9692C98.6529 31.1067 97.709 32.2868 97.3963 33.339C97.1888 34.0328 97.2485 34.684 97.2002 35.3978C97.0665 37.2689 96.0943 39.0945 94.2635 39.8054C94.052 39.8668 93.8522 39.9629 93.6721 40.0898C93.5079 40.2601 93.3986 40.476 93.3586 40.7093C93.3185 40.9425 93.3495 41.1824 93.4475 41.3979C93.65 41.8236 93.904 42.2228 94.2038 42.5865C95.0194 43.7628 95.3754 45.1975 95.2044 46.6188C94.8633 49.3402 92.6459 51.5696 92.4071 54.2967C92.1796 56.856 93.7148 59.2048 94.1952 61.7214C94.4966 63.2911 94.3829 64.9092 94.2151 66.4988C93.9593 68.9415 93.5328 71.4894 92.0346 73.4344C91.7096 73.897 91.2762 74.2729 90.7724 74.5292C90.4779 74.6584 90.1635 74.7363 89.8428 74.7596C90.4468 74.8315 91.0593 74.7524 91.6253 74.5292C92.13 74.2797 92.5662 73.9107 92.896 73.4543C94.3942 71.5093 94.8207 68.9614 95.0765 66.5187C95.2443 64.9291 95.3608 63.311 95.0566 61.7413C94.5762 59.2247 93.041 56.8673 93.2684 54.3166C93.5129 51.5838 95.7247 49.3544 96.0658 46.6387C96.2368 45.2174 95.8808 43.7827 95.0651 42.6064C94.7654 42.2427 94.5114 41.8435 94.3089 41.4178C94.2109 41.2024 94.1799 40.9624 94.22 40.7292C94.26 40.4959 94.3693 40.2801 94.5335 40.1097C94.7135 39.9828 94.9134 39.8867 95.1248 39.8253C96.9557 39.1201 97.9279 37.2888 98.0615 35.4177C98.1099 34.7039 98.0615 34.0527 98.2577 33.3589C98.5619 32.2868 99.5057 31.1152 99.3437 29.9692Z" fill="black"/>
</g>
<path opacity="0.1" d="M88.5811 130.327C89.0683 130.86 89.6955 131.244 90.3908 131.436C91.0862 131.628 91.8215 131.62 92.5127 131.414" fill="black"/>
<path opacity="0.1" d="M106.799 178.954C106.527 179.173 106.211 179.331 105.872 179.417C105.533 179.502 105.18 179.513 104.837 179.449" fill="black"/>
<path opacity="0.1" d="M29.8932 187.78C34.1214 187.78 37.549 187.201 37.549 186.487C37.549 185.772 34.1214 185.193 29.8932 185.193C25.665 185.193 22.2373 185.772 22.2373 186.487C22.2373 187.201 25.665 187.78 29.8932 187.78Z" fill="#6C63FF"/>
<path d="M239.493 213.544C243.721 213.544 247.149 212.965 247.149 212.25C247.149 211.536 243.721 210.956 239.493 210.956C235.265 210.956 231.837 211.536 231.837 212.25C231.837 212.965 235.265 213.544 239.493 213.544Z" fill="#6C63FF"/>
<path opacity="0.1" d="M239.493 188.639C243.721 188.639 247.149 188.06 247.149 187.345C247.149 186.631 243.721 186.052 239.493 186.052C235.265 186.052 231.837 186.631 231.837 187.345C231.837 188.06 235.265 188.639 239.493 188.639Z" fill="#6C63FF"/>
<path opacity="0.1" d="M51.6012 199.795C55.8294 199.795 59.2571 199.216 59.2571 198.501C59.2571 197.787 55.8294 197.207 51.6012 197.207C47.373 197.207 43.9453 197.787 43.9453 198.501C43.9453 199.216 47.373 199.795 51.6012 199.795Z" fill="#6C63FF"/>
<path d="M263.706 200.435C270.019 200.435 275.137 199.569 275.137 198.501C275.137 197.433 270.019 196.567 263.706 196.567C257.392 196.567 252.274 197.433 252.274 198.501C252.274 199.569 257.392 200.435 263.706 200.435Z" fill="#6C63FF"/>
<path opacity="0.1" d="M99.3469 218C113.597 218 125.149 216.047 125.149 213.638C125.149 211.229 113.597 209.276 99.3469 209.276C85.0969 209.276 73.5449 211.229 73.5449 213.638C73.5449 216.047 85.0969 218 99.3469 218Z" fill="#6C63FF"/>
<path d="M268.43 195.339C268.952 194.913 269.333 194.339 269.522 193.692C269.661 193.038 269.383 192.256 268.76 192.018C268.061 191.75 267.313 192.234 266.747 192.726C266.182 193.218 265.531 193.772 264.789 193.67C265.17 193.324 265.456 192.885 265.617 192.396C265.779 191.907 265.811 191.385 265.71 190.88C265.678 190.671 265.589 190.474 265.454 190.311C265.064 189.896 264.362 190.075 263.896 190.402C262.418 191.443 262.006 193.451 261.997 195.259C261.849 194.608 261.974 193.928 261.971 193.269C261.969 192.609 261.784 191.847 261.221 191.497C260.873 191.305 260.481 191.207 260.084 191.213C259.418 191.19 258.679 191.255 258.224 191.742C257.656 192.347 257.807 193.36 258.298 194.017C258.79 194.673 259.535 195.097 260.22 195.558C260.772 195.886 261.242 196.334 261.596 196.869C261.637 196.943 261.671 197.021 261.698 197.102H265.863C266.794 196.633 267.658 196.04 268.43 195.339Z" fill="#6C63FF"/>
<path d="M244.22 209.156C244.741 208.73 245.121 208.156 245.309 207.51C245.448 206.856 245.173 206.088 244.547 205.835C243.848 205.568 243.1 206.051 242.535 206.543C241.969 207.035 241.318 207.589 240.576 207.487C240.957 207.141 241.243 206.703 241.404 206.214C241.566 205.725 241.598 205.202 241.497 204.697C241.466 204.488 241.378 204.291 241.241 204.129C240.854 203.714 240.149 203.893 239.686 204.22C238.208 205.26 237.795 207.268 237.787 209.077C237.636 208.425 237.761 207.746 237.758 207.086C237.756 206.426 237.571 205.664 237.008 205.314C236.659 205.127 236.267 205.034 235.871 205.044C235.206 205.022 234.466 205.087 234.012 205.573C233.443 206.179 233.594 207.191 234.085 207.848C234.577 208.505 235.322 208.929 236.01 209.389C236.56 209.718 237.03 210.166 237.383 210.7C237.424 210.775 237.458 210.853 237.486 210.934H241.65C242.583 210.459 243.447 209.861 244.22 209.156Z" fill="#6C63FF"/>
<path d="M60.2713 183.504C60.2713 183.504 56.2771 169.937 61.0219 159.953C63.0423 155.776 63.6528 151.056 62.7617 146.502C62.322 144.345 61.6854 142.233 60.8598 140.192" stroke="#535461" stroke-width="2" stroke-miterlimit="10"/>
<path d="M63.803 133.882C63.803 135.545 60.7924 140.365 60.7924 140.365C60.7924 140.365 57.7846 135.545 57.7846 133.882C57.7722 133.479 57.8409 133.077 57.9866 132.701C58.1322 132.325 58.3519 131.982 58.6325 131.693C58.9132 131.403 59.2491 131.173 59.6204 131.016C59.9916 130.859 60.3907 130.778 60.7938 130.778C61.197 130.778 61.596 130.859 61.9673 131.016C62.3385 131.173 62.6744 131.403 62.9551 131.693C63.2357 131.982 63.4554 132.325 63.6011 132.701C63.7467 133.077 63.8154 133.479 63.803 133.882Z" fill="#6C63FF"/>
<path d="M68.7772 143.093C67.8731 144.486 62.7275 146.897 62.7275 146.897C62.7275 146.897 62.8214 141.21 63.7254 139.82C64.1696 139.173 64.8484 138.726 65.6174 138.572C66.3864 138.419 67.1848 138.572 67.843 138.998C68.5011 139.424 68.9669 140.091 69.1414 140.856C69.3159 141.62 69.1852 142.423 68.7772 143.093Z" fill="#6C63FF"/>
<path d="M68.5612 158.829C67.0772 159.58 61.417 159.063 61.417 159.063C61.417 159.063 64.3651 154.203 65.849 153.455C66.5583 153.122 67.3694 153.079 68.11 153.334C68.8506 153.59 69.4624 154.124 69.8155 154.824C70.1685 155.524 70.235 156.333 70.0008 157.081C69.7666 157.829 69.2501 158.456 68.5612 158.829Z" fill="#6C63FF"/>
<path d="M65.7159 170.707C64.3797 171.694 58.7139 172.129 58.7139 172.129C58.7139 172.129 60.8005 166.84 62.1253 165.85C62.7683 165.421 63.5515 165.256 64.3128 165.389C65.0742 165.521 65.7554 165.942 66.2153 166.563C66.6753 167.184 66.8788 167.959 66.7837 168.726C66.6886 169.493 66.3022 170.194 65.7045 170.684L65.7159 170.707Z" fill="#6C63FF"/>
<path d="M56.4083 147.222C57.6023 148.379 63.1545 149.579 63.1545 149.579C63.1545 149.579 61.7956 144.059 60.5959 142.902C60.0188 142.369 59.2566 142.084 58.4718 142.105C57.687 142.127 56.9416 142.454 56.3947 143.018C55.8477 143.581 55.5425 144.336 55.544 145.121C55.5454 145.907 55.8536 146.66 56.4027 147.222H56.4083Z" fill="#6C63FF"/>
<path d="M53.2589 161.147C54.7428 161.895 60.4002 161.377 60.4002 161.377C60.4002 161.377 57.4521 156.517 55.9681 155.769C55.2575 155.429 54.4417 155.381 53.696 155.635C52.9503 155.89 52.3339 156.426 51.9793 157.13C51.6247 157.834 51.5601 158.649 51.7993 159.4C52.0385 160.151 52.5625 160.778 53.2589 161.147Z" fill="#6C63FF"/>
<path d="M52.0507 175.101C53.3868 176.09 59.0527 176.523 59.0527 176.523C59.0527 176.523 56.966 171.233 55.6412 170.247C54.9983 169.818 54.2151 169.652 53.4537 169.785C52.6923 169.918 52.0112 170.338 51.5512 170.96C51.0913 171.581 50.8878 172.355 50.9828 173.122C51.0779 173.89 51.4643 174.591 52.062 175.081L52.0507 175.101Z" fill="#6C63FF"/>
<path d="M50.8223 182.651C50.8223 182.651 55.6864 181.684 56.9856 180.396C58.2848 179.107 64.1184 176.855 64.7666 178.465C65.4148 180.074 73.5227 185.548 68.0103 186.515C62.498 187.482 55.0383 187.803 53.4178 187.161C51.7974 186.518 50.8223 182.651 50.8223 182.651Z" fill="#A8A8A8"/>
<path opacity="0.2" d="M68.0189 185.909C62.5065 186.876 55.0468 187.198 53.4263 186.552C52.1897 186.063 51.3311 183.708 50.9928 182.608L50.8223 182.651C50.8223 182.651 51.7945 186.515 53.4178 187.161C55.0411 187.806 62.498 187.482 68.0103 186.515C69.6023 186.231 70.0572 185.582 69.8866 184.752C69.7587 185.284 69.2043 185.702 68.0189 185.909Z" fill="black"/>
<path d="M241.059 168.691C241.059 168.691 242.623 170.736 240.34 173.81C238.057 176.884 236.175 179.497 236.928 181.422C236.928 181.422 240.374 175.692 243.183 175.612C245.992 175.533 244.138 172.129 241.059 168.691Z" fill="#6C63FF"/>
<path opacity="0.1" d="M241.059 168.691C241.196 168.889 241.304 169.105 241.38 169.334C244.115 172.547 245.571 175.547 242.941 175.621C240.493 175.692 237.557 180.071 236.852 181.178C236.875 181.263 236.902 181.348 236.934 181.431C236.934 181.431 240.38 175.701 243.188 175.621C245.997 175.541 244.138 172.129 241.059 168.691Z" fill="black"/>
<path d="M243.965 171.296C243.965 172.015 243.882 172.598 243.783 172.598C243.683 172.598 243.604 172.029 243.604 171.296C243.604 170.562 243.703 170.915 243.803 170.915C243.902 170.915 243.965 170.576 243.965 171.296Z" fill="#FFD037"/>
<path d="M244.96 172.155C244.329 172.499 243.777 172.706 243.732 172.618C243.686 172.53 244.155 172.183 244.786 171.839C245.417 171.495 245.17 171.745 245.218 171.839C245.267 171.933 245.591 171.811 244.96 172.155Z" fill="#FFD037"/>
<path d="M232.811 168.691C232.811 168.691 231.248 170.736 233.531 173.81C235.813 176.884 237.695 179.497 236.942 181.422C236.942 181.422 233.499 175.692 230.688 175.612C227.876 175.533 229.727 172.129 232.811 168.691Z" fill="#6C63FF"/>
<path opacity="0.1" d="M232.812 168.691C232.675 168.889 232.567 169.105 232.49 169.334C229.756 172.547 228.3 175.547 230.93 175.621C233.377 175.692 236.314 180.071 237.019 181.178C236.996 181.264 236.968 181.348 236.934 181.431C236.934 181.431 233.491 175.701 230.68 175.621C227.868 175.541 229.727 172.129 232.812 168.691Z" fill="black"/>
<path d="M229.906 171.296C229.906 172.015 229.989 172.598 230.088 172.598C230.188 172.598 230.267 172.029 230.267 171.296C230.267 170.562 230.168 170.915 230.068 170.915C229.969 170.915 229.906 170.576 229.906 171.296Z" fill="#FFD037"/>
<path d="M228.912 172.155C229.543 172.499 230.092 172.706 230.14 172.618C230.189 172.53 229.717 172.183 229.085 171.839C228.454 171.495 228.702 171.745 228.653 171.839C228.605 171.933 228.281 171.811 228.912 172.155Z" fill="#FFD037"/>
<path d="M230.404 181.163C230.404 181.163 234.771 181.027 236.09 180.091C237.409 179.156 242.808 178.035 243.135 179.523C243.462 181.01 249.696 186.999 244.767 187.038C239.837 187.078 233.313 186.271 231.999 185.472C230.686 184.672 230.404 181.163 230.404 181.163Z" fill="#A8A8A8"/>
<path opacity="0.2" d="M244.852 186.529C239.922 186.569 233.398 185.762 232.084 184.963C231.084 184.354 230.683 182.167 230.552 181.158H230.404C230.404 181.158 230.689 184.681 231.996 185.48C233.304 186.279 239.834 187.087 244.764 187.047C246.185 187.047 246.677 186.529 246.651 185.782C246.452 186.239 245.909 186.521 244.852 186.529Z" fill="black"/>
</g>
</svg>
